<svg width="19" height="19" viewBox="0 0 19 19" fill="none" xmlns="http://www.w3.org/2000/svg">
<path d="M12.6665 3.95573H8.31235V2.3724H10.2915C10.5015 2.3724 10.7028 2.28899 10.8513 2.14052C10.9998 1.99206 11.0832 1.79069 11.0832 1.58073C11.0832 1.37077 10.9998 1.1694 10.8513 1.02094C10.7028 0.87247 10.5015 0.789063 10.2915 0.789062H4.74985C4.53989 0.789063 4.33853 0.87247 4.19006 1.02094C4.04159 1.1694 3.95819 1.37077 3.95819 1.58073C3.95819 1.79069 4.04159 1.99206 4.19006 2.14052C4.33853 2.28899 4.53989 2.3724 4.74985 2.3724H6.72902V3.95573H3.56235C3.40492 3.9502 3.24803 3.97713 3.10146 4.03485C2.95488 4.09258 2.82175 4.17985 2.71036 4.29124C2.59897 4.40263 2.5117 4.53576 2.45398 4.68233C2.39626 4.82891 2.36932 4.9858 2.37485 5.14323V8.3099C2.36932 8.46733 2.39626 8.62422 2.45398 8.77079C2.5117 8.91737 2.59897 9.05049 2.71036 9.16189C2.82175 9.27328 2.95488 9.36055 3.10146 9.41827C3.24803 9.47599 3.40492 9.50292 3.56235 9.4974H11.0832V12.2682C11.0777 12.4257 11.1046 12.5826 11.1623 12.7291C11.22 12.8757 11.3073 13.0088 11.4187 13.1202C11.5301 13.2316 11.6632 13.3189 11.8098 13.3766C11.9564 13.4343 12.1133 13.4613 12.2707 13.4557H15.4374C15.5948 13.4613 15.7517 13.4343 15.8982 13.3766C16.0448 13.3189 16.178 13.2316 16.2893 13.1202C16.4007 13.0088 16.488 12.8757 16.5457 12.7291C16.6034 12.5826 16.6304 12.4257 16.6249 12.2682V7.91406C16.6249 6.86425 16.2078 5.85743 15.4655 5.1151C14.7232 4.37277 13.7163 3.95573 12.6665 3.95573ZM15.0415 11.8724H12.6665V9.10156C12.672 8.94413 12.6451 8.78724 12.5874 8.64067C12.5297 8.49409 12.4424 8.36096 12.331 8.24957C12.2196 8.13818 12.0865 8.05091 11.9399 7.99319C11.7933 7.93547 11.6365 7.90853 11.479 7.91406H3.95819V5.53906H12.6665C13.2964 5.53906 13.9005 5.78928 14.3459 6.23468C14.7913 6.68008 15.0415 7.28417 15.0415 7.91406V11.8724Z" fill="#ED4E00"/>
<path d="M13.854 14.2461L12.6665 15.5919C12.5278 15.7462 12.4217 15.9268 12.3544 16.123C12.2871 16.3192 12.26 16.527 12.2748 16.7339C12.2896 16.9408 12.3459 17.1426 12.4404 17.3272C12.5349 17.5119 12.6657 17.6756 12.8248 17.8086C13.1116 18.0539 13.4766 18.1887 13.854 18.1887C14.2314 18.1887 14.5964 18.0539 14.8832 17.8086C15.0424 17.6756 15.1731 17.5119 15.2676 17.3272C15.3621 17.1426 15.4184 16.9408 15.4332 16.7339C15.448 16.527 15.4209 16.3192 15.3536 16.123C15.2863 15.9268 15.1802 15.7462 15.0415 15.5919L13.854 14.2461Z" fill="#ED4E00"/>
</svg>
