<svg width="28" height="28" viewBox="0 0 28 28" fill="none" xmlns="http://www.w3.org/2000/svg">
<path fill-rule="evenodd" clip-rule="evenodd" d="M14.4969 4.375C10.6308 4.375 7.49683 7.50902 7.49683 11.375C7.49683 13.333 8.29962 15.1021 9.59632 16.3736C9.69395 16.3662 9.79232 16.3625 9.89128 16.3625H15.5282C16.3904 16.3625 17.1056 16.9928 17.2377 17.8184C19.7425 16.7515 21.4969 14.2672 21.4969 11.375C21.4969 7.50902 18.3628 4.375 14.4969 4.375ZM5.74683 11.375C5.74683 13.5067 6.50995 15.4612 7.77639 16.9787C7.15673 17.3733 6.64731 17.941 6.32375 18.6336L5.91323 19.5125H3.47184C3.0369 19.5125 2.68433 19.8652 2.68433 20.3C2.68433 20.7349 3.0369 21.0876 3.47184 21.0876H6.08034C6.59012 21.0876 7.05378 20.7923 7.26952 20.3306L7.75076 19.3003C8.1391 18.4689 8.97369 17.9375 9.89128 17.9375H15.5282C15.6143 17.9375 15.6842 18.0071 15.6844 18.0934L15.6891 19.5125H13.2503C12.8153 19.5125 12.4628 19.8652 12.4628 20.3C12.4628 20.7349 12.8153 21.0876 13.2503 21.0876H17.1147C17.2904 21.0876 17.4614 21.0306 17.6019 20.9251L22.5106 17.243C22.8771 16.9681 23.401 17.0707 23.6366 17.4636C23.8321 17.7892 23.7617 18.2086 23.4709 18.4528L18.7559 22.4101C17.7535 23.2514 16.4867 23.7126 15.1781 23.7126H3.47184C3.0369 23.7126 2.68433 24.0652 2.68433 24.5001C2.68433 24.935 3.0369 25.2876 3.47184 25.2876H15.1781C16.857 25.2876 18.4823 24.6959 19.7684 23.6165L24.4834 19.6591C25.3674 18.9173 25.581 17.6428 24.9872 16.6532C24.3834 15.6469 23.1573 15.2673 22.12 15.6735C22.8374 14.4041 23.2469 12.9376 23.2469 11.375C23.2469 6.54253 19.3293 2.625 14.4969 2.625C9.66435 2.625 5.74683 6.54253 5.74683 11.375ZM17.263 19.2015L17.2656 19.2086L17.2631 19.2105L17.263 19.2015ZM14.4512 13.9094L11.8719 11.3298L14.4512 8.7504L17.0307 11.3298L14.4512 13.9094Z" fill="#F5FBFF"/>
</svg>
