<svg width="28" height="28" viewBox="0 0 28 28" fill="none" xmlns="http://www.w3.org/2000/svg">
<path d="M19.8339 4.66797C23.6999 4.66797 26.8339 7.80197 26.8339 11.668V16.3346C26.8339 20.2006 23.6999 23.3346 19.8339 23.3346H8.16724C4.30124 23.3346 1.16724 20.2006 1.16724 16.3346V11.668C1.16724 7.80197 4.30124 4.66797 8.16724 4.66797H19.8339ZM19.8339 7.0013H8.16724C5.668 7.0013 3.62764 8.96593 3.50629 11.4351L3.50057 11.668V16.3346C3.50057 18.8339 5.4652 20.8743 7.93432 20.9956L8.16724 21.0013H19.8339C22.3331 21.0013 24.3735 19.0366 24.4949 16.5675L24.5006 16.3346V11.668C24.5006 9.16874 22.5359 7.12838 20.0668 7.00702L19.8339 7.0013ZM11.6672 10.5013V12.8346H14.0006V15.168H11.6661L11.6672 17.5013H9.3339L9.33274 15.168H7.00057V12.8346H9.3339V10.5013H11.6672ZM21.0006 15.168V17.5013H18.6672V15.168H21.0006ZM18.6672 10.5013V12.8346H16.3339V10.5013H18.6672Z" fill="#F5FBFF"/>
</svg>
