<svg width="28" height="28" viewBox="0 0 28 28" fill="none" xmlns="http://www.w3.org/2000/svg">
<path d="M24.4994 3.5C25.1438 3.5 25.6661 4.02234 25.6661 4.66667V21C25.6661 21.6444 25.1438 22.1667 24.4994 22.1667H7.53026L2.33276 26.25V4.66667C2.33276 4.02234 2.8551 3.5 3.49943 3.5H24.4994ZM23.3328 5.83333H4.6661V21.4492L6.72332 19.8333H23.3328V5.83333ZM12.2673 8.64687L12.788 9.45047C10.8425 10.5031 10.8765 12.1939 10.8765 12.5586C11.0574 12.5336 11.2473 12.5303 11.4355 12.5478C12.488 12.6454 13.3176 13.5094 13.3176 14.5833C13.3176 15.7109 12.4035 16.625 11.2759 16.625C10.65 16.625 10.0514 16.3389 9.67309 15.9372C9.07211 15.2993 8.74943 14.5833 8.74943 13.4227C8.74943 11.3813 10.1824 9.55131 12.2673 8.64687ZM18.1006 8.64687L18.6213 9.45047C16.6758 10.5031 16.7098 12.1939 16.7098 12.5586C16.8908 12.5336 17.0807 12.5303 17.2689 12.5478C18.3213 12.6454 19.151 13.5094 19.151 14.5833C19.151 15.7109 18.2369 16.625 17.1093 16.625C16.4834 16.625 15.8848 16.3389 15.5064 15.9372C14.9055 15.2993 14.5828 14.5833 14.5828 13.4227C14.5828 11.3813 16.0158 9.55131 18.1006 8.64687Z" fill="#F5FBFF"/>
</svg>
