<svg width="394" height="363" viewBox="0 0 394 363" fill="none" xmlns="http://www.w3.org/2000/svg">
<path d="M28.368 33.72L29.264 41H0.2C0.312 34.336 0.368 27.616 0.368 20C0.368 14.288 0.312 7.568 0.2 0.903999H28.592L27.696 8.184H9.104C9.048 11.208 8.992 14.12 8.992 16.92H27.416V24.2H8.992C8.992 27.504 9.048 30.64 9.104 33.72H28.368ZM63.3523 41H54.0563L47.2243 29.744L40.5603 41H31.2642L41.5123 25.432L31.9923 11.544H41.2883L47.2803 21.68L52.9923 11.544H62.2883L52.9923 25.656L63.3523 41ZM83.0975 10.872C90.7135 10.872 94.9695 17.816 94.9695 26.328C94.9695 34.84 90.6575 41.728 83.0415 41.728C79.2895 41.728 76.3775 39.6 74.5855 36.24V52.088H66.4095C66.5775 45.424 66.6335 38.76 66.6335 32.096C66.6335 25.264 66.5775 18.376 66.4095 11.544H74.7535L74.6415 15.856C76.4335 12.72 79.2895 10.872 83.0975 10.872ZM80.4655 35.232C84.5535 35.232 86.6255 31.816 86.6255 26.328C86.6255 20.84 84.6095 17.368 80.4655 17.368C76.3215 17.368 74.3055 20.504 74.3055 26.048C74.3055 31.928 76.5455 35.232 80.4655 35.232ZM101.593 41C100.921 35.904 100.865 31.424 100.865 24.872C100.865 16.92 100.865 7.568 100.753 0.903999H109.209C109.097 7.568 109.097 16.92 109.097 24.872C109.097 31.424 109.265 35.904 109.993 41H101.593ZM129.896 41.728C120.04 41.728 114.944 35.288 114.944 26.328C114.944 17.368 120.04 10.872 129.896 10.872C139.752 10.872 144.792 17.368 144.792 26.328C144.792 35.288 139.752 41.728 129.896 41.728ZM129.896 35.232C134.096 35.232 136.504 31.984 136.504 26.328C136.504 20.616 134.096 17.368 129.896 17.368C125.696 17.368 123.288 20.616 123.288 26.328C123.288 31.984 125.696 35.232 129.896 35.232ZM158.974 18.096C160.878 13.392 164.518 10.928 169.222 10.872V19.272C162.278 18.656 158.974 21.904 158.974 29.24V41H150.574C150.63 36.072 150.686 31.144 150.686 26.216C150.686 21.4 150.63 16.416 150.574 11.544H159.142L158.974 17.088V18.096ZM186.771 10.872C195.843 10.872 200.995 16.696 200.603 26.216L200.547 27.616H179.883C180.275 32.488 182.739 35.232 186.715 35.232C189.739 35.232 192.035 33.832 192.987 31.368L200.491 32.544C198.643 38.256 193.491 41.728 186.827 41.728C177.475 41.728 171.819 35.904 171.819 26.384C171.819 16.752 177.475 10.872 186.771 10.872ZM180.219 22.352H192.651C192.035 18.6 189.907 16.528 186.659 16.528C183.299 16.528 181.059 18.6 180.219 22.352ZM28.368 95.72L29.264 103H0.2C0.312 96.336 0.368 89.616 0.368 82C0.368 76.288 0.312 69.568 0.2 62.904H28.592L27.696 70.184H9.104C9.048 73.208 8.992 76.12 8.992 78.92H27.416V86.2H8.992C8.992 89.504 9.048 92.64 9.104 95.72H28.368ZM63.3523 103H54.0563L47.2243 91.744L40.5603 103H31.2642L41.5123 87.432L31.9923 73.544H41.2883L47.2803 83.68L52.9923 73.544H62.2883L52.9923 87.656L63.3523 103ZM81.8095 97.008L82.8175 102.552C80.9135 103.168 78.7855 103.728 75.9295 103.728C68.7055 103.728 67.9775 99.64 67.9775 95.216V79.76H63.6655V73.544H68.2575V66.6L76.1535 63.072V73.544H82.1455V79.76H76.1535V94.04C76.1535 96.28 76.2655 97.904 78.2815 97.904C79.3455 97.904 80.4095 97.624 81.8095 97.008ZM100.311 72.872C109.383 72.872 114.535 78.696 114.143 88.216L114.087 89.616H93.4225C93.8145 94.488 96.2785 97.232 100.255 97.232C103.279 97.232 105.575 95.832 106.527 93.368L114.031 94.544C112.183 100.256 107.031 103.728 100.367 103.728C91.0145 103.728 85.3585 97.904 85.3585 88.384C85.3585 78.752 91.0145 72.872 100.311 72.872ZM93.7585 84.352H106.191C105.575 80.6 103.447 78.528 100.199 78.528C96.8385 78.528 94.5985 80.6 93.7585 84.352ZM147.339 103H138.883C138.995 97.064 138.995 91.632 138.995 85.584C138.995 81.44 137.651 79.368 134.123 79.368C130.259 79.368 128.075 82.28 128.075 86.144V103H119.675C119.731 98.072 119.787 93.144 119.787 88.216C119.787 83.4 119.731 78.416 119.675 73.544H128.243L128.075 78.36C129.979 74.832 133.451 72.872 137.595 72.872C145.099 72.872 147.283 77.856 147.283 83.96C147.283 90.176 147.227 96.56 147.339 103ZM167.008 103.728C160.344 103.728 154.296 101.208 152.728 95.384L160.4 93.648C161.352 96.672 164.096 97.736 167.12 97.736C169.696 97.736 171.824 96.952 171.824 94.992C171.824 92.92 169.528 92.024 165.832 91.128L162.024 90.176C156.984 88.944 153.344 86.368 153.344 81.664C153.344 75.672 159.056 72.872 166.336 72.872C172.664 72.872 177.2 75.28 179.328 79.76L172.216 81.944C171.04 79.872 168.744 78.864 165.832 78.864C163.704 78.864 161.24 79.536 161.24 81.328C161.24 82.952 163.088 83.4 165.888 84.072L170.704 85.248C174.568 86.2 179.72 88.384 179.72 94.544C179.72 100.592 174.288 103.728 167.008 103.728ZM184.753 69.792C184.809 68.672 184.809 67.44 184.809 66.32C184.809 65.2 184.809 64.024 184.753 62.904H193.545C193.489 64.024 193.489 65.2 193.489 66.32C193.489 67.44 193.489 68.672 193.545 69.792H184.753ZM184.921 103C185.033 98.072 185.033 93.144 185.033 88.216C185.033 83.4 184.977 78.416 184.921 73.544H193.433C193.377 78.416 193.321 83.4 193.321 88.216C193.321 93.144 193.321 98.072 193.433 103H184.921ZM217.079 72.872C224.695 72.872 228.951 79.816 228.951 88.328C228.951 96.84 224.639 103.728 217.023 103.728C213.215 103.728 210.303 101.544 208.511 98.128L208.007 103H199.663C200.503 95.832 200.727 89.952 200.727 82.952C200.727 76.232 200.615 69.624 200.447 62.904H208.679V77.8C210.471 74.72 213.327 72.872 217.079 72.872ZM214.447 97.232C218.535 97.232 220.607 93.816 220.607 88.328C220.607 82.84 218.591 79.368 214.447 79.368C210.303 79.368 208.287 82.504 208.287 88.048C208.287 93.928 210.527 97.232 214.447 97.232ZM235.578 103C234.906 97.904 234.85 93.424 234.85 86.872C234.85 78.92 234.85 69.568 234.738 62.904H243.194C243.082 69.568 243.082 78.92 243.082 86.872C243.082 93.424 243.25 97.904 243.978 103H235.578ZM263.881 72.872C272.953 72.872 278.105 78.696 277.713 88.216L277.657 89.616H256.993C257.385 94.488 259.849 97.232 263.825 97.232C266.849 97.232 269.145 95.832 270.097 93.368L277.601 94.544C275.753 100.256 270.601 103.728 263.937 103.728C254.585 103.728 248.929 97.904 248.929 88.384C248.929 78.752 254.585 72.872 263.881 72.872ZM257.329 84.352H269.761C269.145 80.6 267.017 78.528 263.769 78.528C260.409 78.528 258.169 80.6 257.329 84.352ZM9.104 157.496H27.752V165H0.2C0.312 158.336 0.368 151.616 0.368 144C0.368 138.288 0.312 131.568 0.2 124.904H9.16C9.104 131.568 8.992 138.288 8.992 144C8.992 148.76 9.048 153.184 9.104 157.496ZM60.2911 165H51.8911L51.4431 159.792C49.6511 163.432 46.6831 165.728 42.7631 165.728C35.1471 165.728 30.8351 158.84 30.8351 150.328C30.8351 141.816 35.0911 134.872 42.7071 134.872C46.4591 134.872 49.3151 136.72 51.1631 139.856L51.2751 135.544H59.4511C59.3391 141.256 59.2831 145.344 59.2831 149.936C59.2831 154.92 59.6751 159.512 60.2911 165ZM45.3391 159.232C49.2591 159.232 51.4991 155.928 51.4991 150.048C51.4991 144.504 49.4831 141.368 45.3391 141.368C41.1951 141.368 39.1791 144.84 39.1791 150.328C39.1791 155.816 41.2511 159.232 45.3391 159.232ZM85.8402 135.544H94.1842L82.4802 165L81.3602 167.744C80.1282 170.768 77.8322 176.088 70.8882 176.088C69.4322 176.088 67.3602 175.864 65.2322 175.36L64.6722 169.2C66.6322 169.76 68.3682 169.928 69.3762 169.928C72.5122 169.928 73.4642 168.192 74.4162 166.008L74.8642 165L62.7122 135.544H71.5042L76.8242 150.216C77.3842 151.728 77.8322 153.352 78.6162 157.608C79.4562 153.352 79.9602 151.728 80.4642 150.328L85.8402 135.544ZM110.045 134.872C119.117 134.872 124.269 140.696 123.877 150.216L123.821 151.616H103.157C103.549 156.488 106.013 159.232 109.989 159.232C113.013 159.232 115.309 157.832 116.261 155.368L123.765 156.544C121.917 162.256 116.765 165.728 110.101 165.728C100.749 165.728 95.0929 159.904 95.0929 150.384C95.0929 140.752 100.749 134.872 110.045 134.872ZM103.493 146.352H115.925C115.309 142.6 113.181 140.528 109.933 140.528C106.573 140.528 104.333 142.6 103.493 146.352ZM137.81 142.096C139.714 137.392 143.354 134.928 148.058 134.872V143.272C141.114 142.656 137.81 145.904 137.81 153.24V165H129.41C129.466 160.072 129.522 155.144 129.522 150.216C129.522 145.4 129.466 140.416 129.41 135.544H137.978L137.81 141.088V142.096ZM189.569 124.904C189.513 131.568 189.401 138.288 189.401 144C189.401 151.616 189.513 158.336 189.569 165H180.609C180.721 158.336 180.777 151.616 180.777 144C180.777 141.312 180.777 138.4 180.721 135.432C178.145 138.848 174.561 141.2 170.809 142.88L167.953 134.872C173.049 132.688 177.753 129.384 180.609 124.904H189.569ZM35.704 186.904C35.648 193.568 35.592 200.288 35.592 207.904C35.592 213.616 35.648 220.336 35.704 227H23.272L8.208 196.928C8.6 200.008 8.936 202.808 8.936 204.208C8.936 212.552 8.992 219.16 9.048 227H0.2C0.256 220.336 0.312 213.616 0.312 206C0.312 200.288 0.256 193.568 0.2 186.904H12.632L27.696 216.976C27.304 213.84 26.968 211.096 26.968 209.696C26.968 201.352 26.912 194.744 26.856 186.904H35.704ZM57.1621 196.872C66.2341 196.872 71.3861 202.696 70.9941 212.216L70.9381 213.616H50.2741C50.6661 218.488 53.1301 221.232 57.1061 221.232C60.1301 221.232 62.4261 219.832 63.3781 217.368L70.8821 218.544C69.0341 224.256 63.8821 227.728 57.2181 227.728C47.8661 227.728 42.2101 221.904 42.2101 212.384C42.2101 202.752 47.8661 196.872 57.1621 196.872ZM50.6101 208.352H63.0421C62.4261 204.6 60.2981 202.528 57.0501 202.528C53.6901 202.528 51.4501 204.6 50.6101 208.352ZM91.9267 221.008L92.9347 226.552C91.0307 227.168 88.9027 227.728 86.0467 227.728C78.8227 227.728 78.0947 223.64 78.0947 219.216V203.76H73.7827V197.544H78.3747V190.6L86.2707 187.072V197.544H92.2627V203.76H86.2707V218.04C86.2707 220.28 86.3827 221.904 88.3987 221.904C89.4627 221.904 90.5267 221.624 91.9267 221.008ZM133.556 197.544H141.172L131.428 227.112H123.028L118.716 212.104C118.156 210.2 117.596 207.904 117.092 204.88C116.532 208.184 116.028 210.2 115.468 212.104L111.044 227.112H102.644L92.8997 197.544H101.188L104.884 209.92C105.892 213.112 106.676 215.912 107.348 219.776C108.076 215.912 108.748 213.056 109.7 209.976L113.452 197.544H121.292L125.1 210.312C125.884 213 126.612 215.856 127.284 219.888C128.068 215.632 129.132 211.88 129.916 209.304L133.556 197.544ZM157.021 227.728C147.165 227.728 142.069 221.288 142.069 212.328C142.069 203.368 147.165 196.872 157.021 196.872C166.877 196.872 171.917 203.368 171.917 212.328C171.917 221.288 166.877 227.728 157.021 227.728ZM157.021 221.232C161.221 221.232 163.629 217.984 163.629 212.328C163.629 206.616 161.221 203.368 157.021 203.368C152.821 203.368 150.413 206.616 150.413 212.328C150.413 217.984 152.821 221.232 157.021 221.232ZM186.099 204.096C188.003 199.392 191.643 196.928 196.347 196.872V205.272C189.403 204.656 186.099 207.904 186.099 215.24V227H177.699C177.755 222.072 177.811 217.144 177.811 212.216C177.811 207.4 177.755 202.416 177.699 197.544H186.267L186.099 203.088V204.096ZM217.48 207.736L229.352 227H220.28L217.536 222.24L211.824 212.664L208.464 215.576C208.52 219.384 208.52 223.192 208.632 227H200.12C200.288 220.28 200.288 213.672 200.288 206.952C200.288 200.288 200.232 193.568 200.12 186.904H208.632C208.52 193.568 208.464 200.288 208.464 206.952V207.736L219.104 197.544H229.184L217.48 207.736ZM262.725 227.672C255.333 227.672 248.501 224.816 245.533 218.768L252.421 214.12C254.717 218.712 258.861 220.336 263.173 220.336C267.205 220.336 270.061 218.88 270.061 215.968C270.061 212.552 266.085 211.824 262.781 210.928L258.357 209.752C255.053 208.856 246.597 206.616 246.597 197.936C246.597 190.768 252.421 186.232 261.997 186.232C269.053 186.232 275.101 188.752 278.461 193.904L271.741 198.608C268.829 195.024 265.469 193.568 261.549 193.568C257.629 193.568 255.501 195.08 255.501 197.432C255.501 200.176 258.525 201.072 262.221 202.08L266.701 203.312C271.461 204.6 278.965 206.84 278.965 215.24C278.965 223.472 271.741 227.672 262.725 227.672ZM299.903 221.008L300.911 226.552C299.007 227.168 296.879 227.728 294.023 227.728C286.799 227.728 286.071 223.64 286.071 219.216V203.76H281.759V197.544H286.351V190.6L294.247 187.072V197.544H300.239V203.76H294.247V218.04C294.247 220.28 294.359 221.904 296.375 221.904C297.439 221.904 298.503 221.624 299.903 221.008ZM318.404 196.872C327.476 196.872 332.628 202.696 332.236 212.216L332.18 213.616H311.516C311.908 218.488 314.372 221.232 318.348 221.232C321.372 221.232 323.668 219.832 324.62 217.368L332.124 218.544C330.276 224.256 325.124 227.728 318.46 227.728C309.108 227.728 303.452 221.904 303.452 212.384C303.452 202.752 309.108 196.872 318.404 196.872ZM311.852 208.352H324.284C323.668 204.6 321.54 202.528 318.292 202.528C314.932 202.528 312.692 204.6 311.852 208.352ZM354.457 196.872C362.073 196.872 366.329 203.816 366.329 212.328C366.329 220.84 362.017 227.728 354.401 227.728C350.649 227.728 347.737 225.6 345.945 222.24V238.088H337.769C337.937 231.424 337.993 224.76 337.993 218.096C337.993 211.264 337.937 204.376 337.769 197.544H346.113L346.001 201.856C347.793 198.72 350.649 196.872 354.457 196.872ZM351.825 221.232C355.913 221.232 357.985 217.816 357.985 212.328C357.985 206.84 355.969 203.368 351.825 203.368C347.681 203.368 345.665 206.504 345.665 212.048C345.665 217.928 347.905 221.232 351.825 221.232ZM0.2 289C0.312 282.336 0.368 275.616 0.368 268C0.368 262.288 0.312 255.568 0.2 248.904H9.16C9.104 255.568 8.992 262.288 8.992 268C8.992 275.616 9.104 282.336 9.16 289H0.2ZM44.4719 289H36.0159C36.1279 283.064 36.1279 277.632 36.1279 271.584C36.1279 267.44 34.7839 265.368 31.2559 265.368C27.3919 265.368 25.2079 268.28 25.2079 272.144V289H16.8079C16.8639 284.072 16.9199 279.144 16.9199 274.216C16.9199 269.4 16.8639 264.416 16.8079 259.544H25.3759L25.2079 264.36C27.1119 260.832 30.5839 258.872 34.7279 258.872C42.2319 258.872 44.4159 263.856 44.4159 269.96C44.4159 276.176 44.3599 282.56 44.4719 289ZM66.6611 283.008L67.6691 288.552C65.7651 289.168 63.6371 289.728 60.7811 289.728C53.5571 289.728 52.8291 285.64 52.8291 281.216V265.76H48.5171V259.544H53.1091V252.6L61.0051 249.072V259.544H66.9971V265.76H61.0051V280.04C61.0051 282.28 61.1171 283.904 63.1331 283.904C64.1971 283.904 65.2611 283.624 66.6611 283.008ZM85.1621 289.728C75.3061 289.728 70.2101 283.288 70.2101 274.328C70.2101 265.368 75.3061 258.872 85.1621 258.872C95.0181 258.872 100.058 265.368 100.058 274.328C100.058 283.288 95.0181 289.728 85.1621 289.728ZM85.1621 283.232C89.3621 283.232 91.7701 279.984 91.7701 274.328C91.7701 268.616 89.3621 265.368 85.1621 265.368C80.9621 265.368 78.5541 268.616 78.5541 274.328C78.5541 279.984 80.9621 283.232 85.1621 283.232ZM137.585 289.728C126.553 289.728 119.217 281.72 119.217 268.952C119.217 256.184 126.553 248.176 137.585 248.176C146.713 248.176 153.097 253.608 155.001 262.792L146.321 264.528C145.201 259.04 142.009 255.736 137.585 255.736C132.041 255.736 128.121 260.72 128.121 268.952C128.121 277.016 132.041 282.168 137.585 282.168C142.233 282.168 145.481 278.92 146.601 273.096L155.337 274.496C153.601 284.072 147.161 289.728 137.585 289.728ZM168.872 266.096C170.776 261.392 174.416 258.928 179.12 258.872V267.272C172.176 266.656 168.872 269.904 168.872 277.24V289H160.472C160.528 284.072 160.584 279.144 160.584 274.216C160.584 269.4 160.528 264.416 160.472 259.544H169.04L168.872 265.088V266.096ZM202.27 259.544H210.614L198.91 289L197.79 291.744C196.558 294.768 194.262 300.088 187.318 300.088C185.862 300.088 183.79 299.864 181.662 299.36L181.102 293.2C183.062 293.76 184.798 293.928 185.806 293.928C188.942 293.928 189.894 292.192 190.846 290.008L191.294 289L179.142 259.544H187.934L193.254 274.216C193.814 275.728 194.262 277.352 195.046 281.608C195.886 277.352 196.39 275.728 196.894 274.328L202.27 259.544ZM230.426 258.872C238.042 258.872 242.298 265.816 242.298 274.328C242.298 282.84 237.986 289.728 230.37 289.728C226.618 289.728 223.706 287.6 221.914 284.24V300.088H213.738C213.906 293.424 213.962 286.76 213.962 280.096C213.962 273.264 213.906 266.376 213.738 259.544H222.082L221.97 263.856C223.762 260.72 226.618 258.872 230.426 258.872ZM227.794 283.232C231.882 283.232 233.954 279.816 233.954 274.328C233.954 268.84 231.938 265.368 227.794 265.368C223.65 265.368 221.634 268.504 221.634 274.048C221.634 279.928 223.874 283.232 227.794 283.232ZM263.481 283.008L264.489 288.552C262.585 289.168 260.457 289.728 257.601 289.728C250.377 289.728 249.649 285.64 249.649 281.216V265.76H245.337V259.544H249.929V252.6L257.825 249.072V259.544H263.817V265.76H257.825V280.04C257.825 282.28 257.937 283.904 259.953 283.904C261.017 283.904 262.081 283.624 263.481 283.008ZM281.982 289.728C272.126 289.728 267.03 283.288 267.03 274.328C267.03 265.368 272.126 258.872 281.982 258.872C291.838 258.872 296.878 265.368 296.878 274.328C296.878 283.288 291.838 289.728 281.982 289.728ZM281.982 283.232C286.182 283.232 288.59 279.984 288.59 274.328C288.59 268.616 286.182 265.368 281.982 265.368C277.782 265.368 275.374 268.616 275.374 274.328C275.374 279.984 277.782 283.232 281.982 283.232ZM28.368 343.72L29.264 351H0.2C0.312 344.336 0.368 337.616 0.368 330C0.368 324.288 0.312 317.568 0.2 310.904H28.592L27.696 318.184H9.104C9.048 321.208 8.992 324.12 8.992 326.92H27.416V334.2H8.992C8.992 337.504 9.048 340.64 9.104 343.72H28.368ZM62.7923 351H54.3363C54.4483 345.064 54.4483 339.632 54.4483 333.584C54.4483 329.44 53.1043 327.368 49.5763 327.368C45.7123 327.368 43.5283 330.28 43.5283 334.144V351H35.1283C35.1843 346.072 35.2403 341.144 35.2403 336.216C35.2403 331.4 35.1843 326.416 35.1283 321.544H43.6963L43.5283 326.36C45.4323 322.832 48.9043 320.872 53.0483 320.872C60.5523 320.872 62.7363 325.856 62.7363 331.96C62.7363 338.176 62.6803 344.56 62.7923 351ZM70.4214 351C69.7494 345.904 69.6934 341.424 69.6934 334.872C69.6934 326.92 69.6934 317.568 69.5814 310.904H78.0374C77.9254 317.568 77.9254 326.92 77.9254 334.872C77.9254 341.424 78.0934 345.904 78.8214 351H70.4214ZM84.9486 317.792C85.0046 316.672 85.0046 315.44 85.0046 314.32C85.0046 313.2 85.0046 312.024 84.9486 310.904H93.7406C93.6846 312.024 93.6846 313.2 93.6846 314.32C93.6846 315.44 93.6846 316.672 93.7406 317.792H84.9486ZM85.1166 351C85.2286 346.072 85.2286 341.144 85.2286 336.216C85.2286 331.4 85.1726 326.416 85.1166 321.544H93.6286C93.5726 326.416 93.5166 331.4 93.5166 336.216C93.5166 341.144 93.5166 346.072 93.6286 351H85.1166ZM128.083 321.544C127.971 328.432 127.915 332.24 127.915 338.904L127.971 347.92C127.971 355.424 125.339 362.088 114.083 362.088C106.131 362.088 101.315 358.672 100.643 353.632L108.707 352.344C109.435 354.528 111.283 355.592 114.195 355.592C118.283 355.592 120.355 353.352 120.355 348.872V344.448C118.563 348.256 115.483 350.72 111.059 350.72C103.723 350.72 99.5226 343.888 99.5226 335.656C99.5226 327.2 104.003 320.872 111.227 320.872C115.035 320.872 117.891 322.664 119.739 325.576L119.627 321.544H128.083ZM113.803 344.224C117.891 344.224 120.187 340.92 120.187 335.6C120.187 330.336 118.059 327.368 113.971 327.368C109.715 327.368 107.867 330.672 107.867 335.768C107.867 340.808 109.771 344.224 113.803 344.224ZM162.374 351H153.974C154.03 345.064 154.03 339.632 154.03 333.584C154.03 329.44 152.742 327.368 149.158 327.368C145.294 327.368 143.278 330.28 143.278 334.144V351H134.878C135.046 344.28 135.046 337.672 135.046 330.952C135.046 324.288 134.99 317.568 134.878 310.904H143.278V326.36C145.126 322.832 148.542 320.872 152.686 320.872C160.19 320.872 162.318 325.856 162.318 331.96C162.318 338.176 162.318 344.56 162.374 351ZM184.567 345.008L185.575 350.552C183.671 351.168 181.543 351.728 178.687 351.728C171.463 351.728 170.735 347.64 170.735 343.216V327.76H166.423V321.544H171.015V314.6L178.911 311.072V321.544H184.903V327.76H178.911V342.04C178.911 344.28 179.023 345.904 181.039 345.904C182.103 345.904 183.167 345.624 184.567 345.008ZM203.068 320.872C212.14 320.872 217.292 326.696 216.9 336.216L216.844 337.616H196.18C196.572 342.488 199.036 345.232 203.012 345.232C206.036 345.232 208.332 343.832 209.284 341.368L216.788 342.544C214.94 348.256 209.788 351.728 203.124 351.728C193.772 351.728 188.116 345.904 188.116 336.384C188.116 326.752 193.772 320.872 203.068 320.872ZM196.516 332.352H208.948C208.332 328.6 206.204 326.528 202.956 326.528C199.596 326.528 197.356 328.6 196.516 332.352ZM250.097 351H241.641C241.753 345.064 241.753 339.632 241.753 333.584C241.753 329.44 240.409 327.368 236.881 327.368C233.017 327.368 230.833 330.28 230.833 334.144V351H222.433C222.489 346.072 222.545 341.144 222.545 336.216C222.545 331.4 222.489 326.416 222.433 321.544H231.001L230.833 326.36C232.737 322.832 236.209 320.872 240.353 320.872C247.857 320.872 250.041 325.856 250.041 331.96C250.041 338.176 249.985 344.56 250.097 351ZM302.974 351H294.518C294.63 345.064 294.63 339.632 294.63 333.584C294.63 329.44 293.286 327.368 289.758 327.368C285.894 327.368 284.102 330.28 284.102 334.088C284.102 339.632 284.102 345.288 284.158 351H275.702C275.814 345.064 275.814 339.632 275.814 333.584C275.814 329.384 274.358 327.368 271.054 327.368C266.966 327.368 265.286 331.568 265.286 337.112V351H256.886C256.942 346.072 256.998 341.144 256.998 336.216C256.998 331.4 256.942 326.416 256.886 321.544H265.454L265.286 327.088V327.424C267.078 323.224 270.382 320.872 274.47 320.872C279.958 320.872 282.59 323.56 283.598 327.368C285.166 323.224 288.694 320.872 293.23 320.872C300.79 320.872 302.918 325.856 302.918 331.96C302.918 338.176 302.862 344.56 302.974 351ZM323.545 320.872C332.617 320.872 337.769 326.696 337.377 336.216L337.321 337.616H316.657C317.049 342.488 319.513 345.232 323.489 345.232C326.513 345.232 328.809 343.832 329.761 341.368L337.265 342.544C335.417 348.256 330.265 351.728 323.601 351.728C314.249 351.728 308.593 345.904 308.593 336.384C308.593 326.752 314.249 320.872 323.545 320.872ZM316.993 332.352H329.425C328.809 328.6 326.681 326.528 323.433 326.528C320.073 326.528 317.833 328.6 316.993 332.352ZM370.574 351H362.118C362.23 345.064 362.23 339.632 362.23 333.584C362.23 329.44 360.886 327.368 357.358 327.368C353.494 327.368 351.31 330.28 351.31 334.144V351H342.91C342.966 346.072 343.022 341.144 343.022 336.216C343.022 331.4 342.966 326.416 342.91 321.544H351.478L351.31 326.36C353.214 322.832 356.686 320.872 360.83 320.872C368.334 320.872 370.518 325.856 370.518 331.96C370.518 338.176 370.462 344.56 370.574 351ZM392.763 345.008L393.771 350.552C391.867 351.168 389.739 351.728 386.883 351.728C379.659 351.728 378.931 347.64 378.931 343.216V327.76H374.619V321.544H379.211V314.6L387.107 311.072V321.544H393.099V327.76H387.107V342.04C387.107 344.28 387.219 345.904 389.235 345.904C390.299 345.904 391.363 345.624 392.763 345.008Z" fill="white"/>
</svg>
