<svg width="18" height="18" viewBox="0 0 18 18" fill="none" xmlns="http://www.w3.org/2000/svg">
<path d="M5.24985 4.50391V2.25391C5.24985 1.8397 5.58564 1.50391 5.99985 1.50391H14.9998C15.4141 1.50391 15.7498 1.8397 15.7498 2.25391V12.7539C15.7498 13.1681 15.4141 13.5039 14.9998 13.5039H12.7498V15.7532C12.7498 16.1678 12.4124 16.5039 11.9947 16.5039H3.00499C2.58794 16.5039 2.25 16.1705 2.25 15.7532L2.25195 5.25456C2.25202 4.83999 2.58948 4.50391 3.00706 4.50391H5.24985ZM3.75181 6.00391L3.75014 15.0039H11.2498V6.00391H3.75181ZM6.74985 4.50391H12.7498V12.0039H14.2498V3.00391H6.74985V4.50391Z" fill="white"/>
</svg>
