<svg width="24" height="24" viewBox="0 0 24 24" fill="none" xmlns="http://www.w3.org/2000/svg">
<rect width="24" height="24" rx="4" fill="#0000C9"/>
<path d="M9.08322 8.5013V6.7513C9.08322 6.42914 9.34439 6.16797 9.66655 6.16797H16.6665C16.9887 6.16797 17.2499 6.42914 17.2499 6.7513V14.918C17.2499 15.2401 16.9887 15.5013 16.6665 15.5013H14.9165V17.2508C14.9165 17.5732 14.6541 17.8346 14.3292 17.8346H7.33722C7.01284 17.8346 6.75 17.5753 6.75 17.2508L6.75152 9.08514C6.75157 8.7627 7.01404 8.5013 7.33883 8.5013H9.08322ZM7.91808 9.66797L7.91678 16.668H13.7499V9.66797H7.91808ZM10.2499 8.5013H14.9165V14.3346H16.0832V7.33464H10.2499V8.5013Z" fill="white"/>
</svg>
