<svg width="221" height="38" viewBox="0 0 221 38" fill="none" xmlns="http://www.w3.org/2000/svg">
<path d="M18.2746 2.68891L0.173164 34.0376C-0.318355 34.8884 0.295196 35.9494 1.27484 35.9494H5.42394L18.2678 13.1938C18.7559 12.3294 20 12.3294 20.4847 13.1938L33.3286 35.9494H37.4743C38.454 35.9494 39.0675 34.8884 38.576 34.0376L20.478 2.68891C19.9864 1.83807 18.7627 1.83807 18.2712 2.68891H18.2746Z" fill="#0000C9"/>
<path d="M18.1822 23.3218L10.8908 35.9487H27.8533L20.5619 23.3218C20.033 22.4032 18.7076 22.4032 18.1788 23.3218H18.1822Z" fill="#0000C9"/>
<path d="M76.4865 34L74.33 27.9478H63.8604L61.7734 34H57.1821L66.33 9.09565H71.9647L81.0778 34H76.4865ZM65.1126 24.3652H73.0778L69.843 15.2522C69.6343 14.6261 69.2517 13.1652 69.0778 11.9478C68.8343 13.2696 68.4865 14.6261 68.2778 15.2522L65.1126 24.3652ZM87.9335 20.0174C89.0465 16.9913 91.3422 15.3913 94.2987 15.3565V19.4957C89.9161 19.2174 87.9335 21.8609 87.9335 26.3826V34H83.8291C83.8639 30.9391 83.8987 27.913 83.8987 24.8522C83.8987 21.8609 83.8639 18.8 83.8291 15.7739H88.0378L87.9335 19.2174V20.0174ZM105.326 30.9391L105.848 33.7913C104.7 34.1739 103.448 34.4522 101.987 34.4522C98.3003 34.4522 97.6742 32.4348 97.6742 29.7565V18.9391H94.8916V15.7739H97.7786V11.2174L101.674 9.33913V15.7739H105.5V18.9391H101.674V29.0609C101.674 30.5565 101.779 31.4609 103.031 31.4609C103.796 31.4609 104.422 31.287 105.326 30.9391ZM116.593 15.3565C122.054 15.3565 125.115 19.0435 124.836 24.713L124.802 25.4783H111.654C111.863 29.0261 113.706 31.0435 116.593 31.0435C118.889 31.0435 120.419 30 121.115 28.1913L124.802 28.9217C123.619 32.3304 120.697 34.4522 116.628 34.4522C111.132 34.4522 107.689 30.8696 107.689 24.9913C107.689 19.0783 111.028 15.3565 116.593 15.3565ZM111.863 22.6609H120.906C120.593 20.0174 119.063 18.4174 116.558 18.4174C114.019 18.4174 112.384 19.9826 111.863 22.6609ZM144.838 34H140.698C140.733 30.2783 140.733 26.7652 140.733 22.9739C140.733 20.1217 139.759 18.6261 137.22 18.6261C134.368 18.6261 132.872 20.7478 132.872 23.5652V34H128.768C128.872 29.8261 128.872 25.7217 128.872 21.5478C128.872 17.4087 128.838 13.2348 128.768 9.09565H132.872V18.9043C133.951 16.6435 136.142 15.3565 138.751 15.3565C143.446 15.3565 144.803 18.4522 144.803 22.2783C144.803 26.0696 144.803 30.0348 144.838 34ZM157.625 34.4522C151.886 34.4522 148.755 30.3826 148.755 24.9217C148.755 19.4609 151.886 15.3565 157.625 15.3565C163.399 15.3565 166.494 19.4609 166.494 24.9217C166.494 30.3826 163.399 34.4522 157.625 34.4522ZM157.625 31.1826C160.686 31.1826 162.425 28.6087 162.425 24.9217C162.425 21.2 160.686 18.6261 157.625 18.6261C154.599 18.6261 152.86 21.2 152.86 24.9217C152.86 28.6087 154.599 31.1826 157.625 31.1826ZM198.097 34H193.957C193.992 30.2783 193.992 26.7652 193.992 22.9739C193.992 20.1217 193.018 18.6261 190.479 18.6261C187.662 18.6261 186.34 20.7478 186.34 23.5304C186.34 26.9391 186.34 30.487 186.375 34H182.236C182.27 30.2783 182.27 26.7652 182.27 22.9739C182.27 20.1217 181.262 18.6261 178.792 18.6261C175.87 18.6261 174.618 21.5478 174.618 25.3739V34H170.514C170.549 30.9391 170.583 27.913 170.583 24.8522C170.583 21.8609 170.549 18.8 170.514 15.7739H174.723L174.618 19.2174V19.5652C175.662 16.8522 177.679 15.3565 180.288 15.3565C183.801 15.3565 185.436 17.0609 186.027 19.5304C186.966 16.8522 189.123 15.3565 191.975 15.3565C196.705 15.3565 198.062 18.4522 198.062 22.2783C198.062 26.0696 198.027 30.0348 198.097 34ZM210.954 15.3565C216.415 15.3565 219.476 19.0435 219.198 24.713L219.163 25.4783H206.015C206.224 29.0261 208.067 31.0435 210.954 31.0435C213.25 31.0435 214.78 30 215.476 28.1913L219.163 28.9217C217.98 32.3304 215.059 34.4522 210.989 34.4522C205.494 34.4522 202.05 30.8696 202.05 24.9913C202.05 19.0783 205.389 15.3565 210.954 15.3565ZM206.224 22.6609H215.267C214.954 20.0174 213.424 18.4174 210.92 18.4174C208.38 18.4174 206.746 19.9826 206.224 22.6609Z" fill="#0000C9"/>
</svg>
