<svg width="147" height="32" viewBox="0 0 147 32" fill="none" xmlns="http://www.w3.org/2000/svg">
<g clip-path="url(#clip0_9061_477)">
<path d="M17.2509 0.602182L0.162931 30.1964C-0.299614 30.9993 0.279295 32 1.20439 32H5.12002L17.2451 10.5193C17.7047 9.70473 18.88 9.70473 19.3397 10.5193L31.4648 32H35.3804C36.3055 32 36.8844 30.9993 36.4218 30.1964L19.3309 0.602182C18.8684 -0.200727 17.7106 -0.200727 17.248 0.602182H17.2509Z" fill="#0000C9"/>
<path d="M17.2684 19.9008L10.2837 31.9998H26.2982L19.3135 19.9008C18.8597 19.1125 17.7222 19.1125 17.2684 19.9008Z" fill="#0000C9"/>
<path d="M58.9004 22.156H48.2298L45.7164 28.7858H41.3818L51.4327 3.21777H55.7295L65.7804 28.7858H61.4458L58.8975 22.156H58.9004ZM49.5767 18.6243H57.5535L53.8007 8.79159C53.6902 8.53559 53.6175 8.24468 53.5826 7.91886C53.5447 8.24759 53.472 8.5385 53.3644 8.79159L49.5767 18.6243Z" fill="#0000C9"/>
<path d="M78.5833 13.9899C78.4001 13.955 78.2313 13.9171 77.9026 13.9171C74.2982 13.9171 72.1484 16.4015 72.1484 21.283V28.7855H68.2153V10.9295H72.1484V14.243C72.9484 11.875 74.8801 10.4902 77.6844 10.4902C78.0859 10.4902 78.3273 10.5281 78.5833 10.563V13.987V13.9899Z" fill="#0000C9"/>
<path d="M92.5848 13.9933H87.9971V22.194C87.9971 24.4893 88.8698 25.362 91.1651 25.362C91.6393 25.362 92.0757 25.362 92.5848 25.3271V28.7133C92.0378 28.7482 91.0924 28.786 90.4 28.786C85.6291 28.786 84.064 26.3104 84.064 22.1213V13.9962H81.0037V10.5722H84.064V5.60059H87.9971V10.5693H92.5848V13.9933Z" fill="#0000C9"/>
<path d="M98.9033 20.6518C99.1942 23.6743 101.524 25.606 104.401 25.606C106.732 25.606 108.591 24.5849 109.391 22.9121H113.469C112.375 26.5892 108.771 28.9572 104.436 28.9572C98.7171 28.9572 94.9294 24.6605 94.9294 19.523C94.9294 14.3856 98.9003 10.0889 104.326 10.0889C109.751 10.0889 113.722 14.3507 113.722 19.523C113.722 19.9245 113.722 20.3609 113.684 20.6518H98.8974H98.9033ZM109.647 17.9201C109.283 15.299 107.06 13.4401 104.329 13.4401C101.597 13.4401 99.4124 15.2234 99.0109 17.9201H109.647Z" fill="#0000C9"/>
<path d="M116.154 3.2002H120.087V22.374C120.087 24.4511 121.108 25.4344 122.819 25.4344C123.148 25.4344 123.799 25.4344 124.163 25.3966V28.7478C123.654 28.7856 122.673 28.8206 122.019 28.8206C118.121 28.8206 116.154 26.7086 116.154 22.4846V3.2002Z" fill="#0000C9"/>
<path d="M142.118 28.7856V26.0045C140.951 27.7878 138.514 28.9543 135.817 28.9543C130.863 28.9543 126.493 25.3121 126.493 19.5201C126.493 13.7281 130.863 10.0859 135.817 10.0859C138.511 10.0859 140.951 11.2525 142.118 13.0358V10.3972H146.051V28.7827H142.118V28.7856ZM136.291 25.4954C139.424 25.4954 142.118 23.1274 142.118 19.523C142.118 15.9187 139.424 13.5507 136.291 13.5507C133.158 13.5507 130.464 15.9187 130.464 19.523C130.464 23.1274 133.158 25.4954 136.291 25.4954Z" fill="#0000C9"/>
</g>
<defs>
<clipPath id="clip0_9061_477">
<rect width="146.051" height="32" fill="white"/>
</clipPath>
</defs>
</svg>
