<svg width="32" height="32" viewBox="0 0 32 32" fill="none" xmlns="http://www.w3.org/2000/svg">
<path d="M25.7032 7.63536C23.9186 6.8165 22.0048 6.2132 20.0039 5.86766C19.9674 5.86099 19.931 5.87766 19.9123 5.91099C19.6661 6.34874 19.3935 6.91982 19.2026 7.36869C17.0505 7.04649 14.9094 7.04649 12.8014 7.36869C12.6104 6.90984 12.3279 6.34874 12.0807 5.91099C12.0619 5.87877 12.0255 5.8621 11.9891 5.86766C9.98923 6.21209 8.07549 6.81539 6.28976 7.63536C6.2743 7.64202 6.26105 7.65315 6.25225 7.66758C2.62229 13.0907 1.62789 18.3805 2.11571 23.6047C2.11792 23.6302 2.13226 23.6547 2.15213 23.6702C4.54708 25.429 6.86699 26.4967 9.14383 27.2045C9.18026 27.2156 9.21887 27.2023 9.24206 27.1723C9.78065 26.4368 10.2607 25.6612 10.6724 24.8457C10.6967 24.7979 10.6735 24.7413 10.6238 24.7224C9.86232 24.4335 9.1372 24.0813 8.43968 23.6813C8.38451 23.6491 8.3801 23.5702 8.43085 23.5324C8.57763 23.4224 8.72446 23.308 8.86461 23.1924C8.88997 23.1713 8.92531 23.1669 8.95512 23.1802C13.5375 25.2724 18.4985 25.2724 23.0268 23.1802C23.0566 23.1658 23.0919 23.1702 23.1184 23.1913C23.2586 23.3069 23.4054 23.4224 23.5533 23.5324C23.604 23.5702 23.6007 23.6491 23.5455 23.6813C22.848 24.0891 22.1229 24.4335 21.3603 24.7213C21.3106 24.7402 21.2885 24.7979 21.3128 24.8457C21.7333 25.6601 22.2134 26.4356 22.742 27.1712C22.7641 27.2023 22.8038 27.2156 22.8403 27.2045C25.1282 26.4967 27.4481 25.429 29.843 23.6702C29.864 23.6547 29.8772 23.6313 29.8794 23.6058C30.4633 17.566 28.9016 12.3196 25.7396 7.66868C25.7319 7.65315 25.7186 7.64202 25.7032 7.63536ZM11.3567 20.4237C9.97708 20.4237 8.84032 19.1571 8.84032 17.6016C8.84032 16.0461 9.95504 14.7795 11.3567 14.7795C12.7694 14.7795 13.8951 16.0572 13.873 17.6016C13.873 19.1571 12.7583 20.4237 11.3567 20.4237ZM20.6605 20.4237C19.281 20.4237 18.1442 19.1571 18.1442 17.6016C18.1442 16.0461 19.2589 14.7795 20.6605 14.7795C22.0732 14.7795 23.199 16.0572 23.1769 17.6016C23.1769 19.1571 22.0732 20.4237 20.6605 20.4237Z" fill="black"/>
</svg>
