<svg width="36" height="48" viewBox="0 0 36 48" fill="none" xmlns="http://www.w3.org/2000/svg">
<path d="M0 0H36V48L18 40L0 48V0Z" fill="#F35725"/>
<g clip-path="url(#clip0_6025_233)">
<path fill-rule="evenodd" clip-rule="evenodd" d="M8.05164 26.8504L17.6701 10.1908C17.8169 9.93641 18.1835 9.93641 18.3303 10.1908L27.9496 26.8496C28.0964 27.1039 27.9127 27.4219 27.6191 27.4219H25.2553C25.1367 27.4219 25.0268 27.3583 24.9687 27.2547L18.2864 15.4161C18.1608 15.1931 17.8397 15.1931 17.7141 15.4161L10.9375 27.4227H8.38215C8.08854 27.4227 7.90483 27.1047 8.05164 26.8504ZM13.7064 27.4219L17.5704 20.7293C17.7612 20.3988 18.2385 20.3988 18.4292 20.7293L22.2933 27.4219H13.7064Z" fill="white"/>
</g>
<defs>
<clipPath id="clip0_6025_233">
<rect width="20" height="17.4219" fill="white" transform="translate(8 10)"/>
</clipPath>
</defs>
</svg>
