<svg width="100" height="100" viewBox="0 0 100 100" fill="none" xmlns="http://www.w3.org/2000/svg">
<mask id="mask0_5973_3978" style="mask-type:alpha" maskUnits="userSpaceOnUse" x="0" y="0" width="100" height="100">
<circle cx="50" cy="50" r="50" fill="#0000C9"/>
</mask>
<g mask="url(#mask0_5973_3978)">
<circle cx="50" cy="50" r="50" fill="black"/>
<path d="M25.52 57V42.7H31.12C34.16 42.7 35.82 44.12 35.82 46.74C35.82 48.64 34.72 49.94 33.16 50.34V50.38C36.44 51.04 35.3 56.64 36.08 56.88V57H34.52C33.86 56.4 35.16 51.06 31.34 51.06H26.98V57H25.52ZM26.98 49.78H30.76C33.04 49.78 34.36 48.76 34.36 46.76C34.36 44.94 33.32 43.98 30.86 43.98H26.98V49.78ZM38.313 57V42.7H48.013V43.98H39.773V48.9H47.133V50.18H39.773V55.72H48.233V57H38.313ZM49.0238 57L54.3638 42.7H56.0038L61.3838 57H59.8238L58.3838 53.04H51.9638L50.5238 57H49.0238ZM52.4438 51.74H57.9238L55.2038 44.08H55.1638L52.4438 51.74ZM63.0591 57V42.7H68.2391C72.2391 42.7 74.4591 45.46 74.4591 49.88C74.4591 54.3 72.1791 57 68.1791 57H63.0591ZM64.5191 55.72H68.1791C71.7591 55.72 72.9391 53.04 72.9391 49.88C72.9391 46.7 71.8191 43.98 68.2191 43.98H64.5191V55.72Z" fill="white"/>
</g>
</svg>
