<svg width="100" height="100" viewBox="0 0 100 100" fill="none" xmlns="http://www.w3.org/2000/svg">
<mask id="mask0_1_4" style="mask-type:alpha" maskUnits="userSpaceOnUse" x="0" y="0" width="100" height="100">
<circle cx="50" cy="50" r="50" fill="#0000C9"/>
</mask>
<g mask="url(#mask0_1_4)">
<circle cx="50" cy="50" r="50" fill="#0000C9"/>
<path d="M31.3727 58C31.2527 58 31.1727 57.9467 31.1327 57.84L26.7727 44.22L26.7527 44.14C26.7527 44.0467 26.8127 44 26.9327 44H28.0127C28.1327 44 28.2127 44.0533 28.2527 44.16L31.8927 55.88C31.9061 55.9067 31.9261 55.92 31.9527 55.92C31.9794 55.92 31.9994 55.9067 32.0127 55.88L35.6527 44.16C35.6927 44.0533 35.7727 44 35.8927 44H36.9527C37.0994 44 37.1527 44.0733 37.1127 44.22L32.7127 57.84C32.6727 57.9467 32.5927 58 32.4727 58H31.3727ZM39.9101 58C39.7767 58 39.7101 57.9333 39.7101 57.8V44.2C39.7101 44.0667 39.7767 44 39.9101 44H40.9301C41.0634 44 41.1301 44.0667 41.1301 44.2V57.8C41.1301 57.9333 41.0634 58 40.9301 58H39.9101ZM53.9459 45.04C53.9459 45.1733 53.8792 45.24 53.7459 45.24H46.3859C46.3325 45.24 46.3059 45.2667 46.3059 45.32V50.26C46.3059 50.3133 46.3325 50.34 46.3859 50.34H51.5459C51.6792 50.34 51.7459 50.4067 51.7459 50.54V51.38C51.7459 51.5133 51.6792 51.58 51.5459 51.58H46.3859C46.3325 51.58 46.3059 51.6067 46.3059 51.66V56.68C46.3059 56.7333 46.3325 56.76 46.3859 56.76H53.7459C53.8792 56.76 53.9459 56.8267 53.9459 56.96V57.8C53.9459 57.9333 53.8792 58 53.7459 58H45.0859C44.9525 58 44.8859 57.9333 44.8859 57.8V44.2C44.8859 44.0667 44.9525 44 45.0859 44H53.7459C53.8792 44 53.9459 44.0667 53.9459 44.2V45.04ZM60.0087 58C59.902 58 59.8287 57.9467 59.7887 57.84L55.9487 44.22L55.9287 44.16C55.9287 44.0533 55.9953 44 56.1287 44H57.1887C57.3087 44 57.382 44.0533 57.4087 44.16L60.4487 55.12C60.462 55.1467 60.4753 55.16 60.4887 55.16C60.5153 55.16 60.5353 55.1467 60.5487 55.12L63.3687 44.18C63.3953 44.06 63.4687 44 63.5887 44H64.6687C64.7887 44 64.862 44.06 64.8887 44.18L67.8287 55.12C67.842 55.1467 67.8553 55.16 67.8687 55.16C67.8953 55.16 67.9153 55.1467 67.9287 55.12L70.9687 44.16C70.9953 44.0533 71.0687 44 71.1887 44H72.2087C72.2753 44 72.322 44.02 72.3487 44.06C72.3887 44.1 72.402 44.1533 72.3887 44.22L68.6087 57.84C68.582 57.9467 68.5087 58 68.3887 58H67.3287C67.2087 58 67.1353 57.94 67.1087 57.82L64.1887 46.62C64.1753 46.5933 64.1553 46.58 64.1287 46.58C64.1153 46.58 64.102 46.5933 64.0887 46.62L61.2287 57.82C61.2153 57.94 61.142 58 61.0087 58H60.0087Z" fill="white"/>
</g>
</svg>
