<svg width="24" height="24" viewBox="0 0 24 24" fill="none" xmlns="http://www.w3.org/2000/svg">
<path d="M9.89063 14.1094C10.5019 14.7174 10.9865 15.4407 11.3164 16.2372C11.6463 17.0338 11.8149 17.8879 11.8125 18.7501C11.8125 18.8992 11.7532 19.0423 11.6477 19.1478C11.5423 19.2533 11.3992 19.3126 11.25 19.3126C11.1008 19.3126 10.9577 19.2533 10.8523 19.1478C10.7468 19.0423 10.6875 18.8992 10.6875 18.7501C10.6875 17.3079 10.1146 15.9249 9.09489 14.9052C8.07516 13.8854 6.69212 13.3126 5.25 13.3126C5.10082 13.3126 4.95774 13.2533 4.85225 13.1478C4.74676 13.0423 4.6875 12.8992 4.6875 12.7501C4.6875 12.6009 4.74676 12.4578 4.85225 12.3523C4.95774 12.2468 5.10082 12.1876 5.25 12.1876C6.11217 12.1851 6.96626 12.3537 7.76283 12.6836C8.5594 13.0135 9.28262 13.4981 9.89063 14.1094ZM5.25 7.68756C5.10082 7.68756 4.95774 7.74682 4.85225 7.85231C4.74676 7.9578 4.6875 8.10087 4.6875 8.25006C4.6875 8.39924 4.74676 8.54232 4.85225 8.6478C4.95774 8.75329 5.10082 8.81256 5.25 8.81256C7.88559 8.81256 10.4132 9.85954 12.2769 11.7232C14.1405 13.5868 15.1875 16.1145 15.1875 18.7501C15.1875 18.8992 15.2468 19.0423 15.3523 19.1478C15.4577 19.2533 15.6008 19.3126 15.75 19.3126C15.8992 19.3126 16.0423 19.2533 16.1477 19.1478C16.2532 19.0423 16.3125 18.8992 16.3125 18.7501C16.3125 17.2973 16.0264 15.8588 15.4704 14.5166C14.9145 13.1745 14.0996 11.9549 13.0724 10.9277C12.0451 9.90044 10.8256 9.08558 9.48344 8.52964C8.14127 7.9737 6.70275 7.68756 5.25 7.68756ZM16.2544 7.74568C14.8126 6.29607 13.0976 5.1468 11.2087 4.3644C9.31984 3.582 7.29452 3.182 5.25 3.18756C5.10082 3.18756 4.95774 3.24682 4.85225 3.35231C4.74676 3.4578 4.6875 3.60087 4.6875 3.75006C4.6875 3.89924 4.74676 4.04232 4.85225 4.1478C4.95774 4.25329 5.10082 4.31256 5.25 4.31256C7.14668 4.30753 9.02552 4.67871 10.7778 5.40463C12.5301 6.13055 14.121 7.19678 15.4584 8.54162C16.8033 9.87909 17.8695 11.47 18.5954 13.2223C19.3213 14.9745 19.6925 16.8534 19.6875 18.7501C19.6875 18.8992 19.7468 19.0423 19.8523 19.1478C19.9577 19.2533 20.1008 19.3126 20.25 19.3126C20.3992 19.3126 20.5423 19.2533 20.6477 19.1478C20.7532 19.0423 20.8125 18.8992 20.8125 18.7501C20.8181 16.7055 20.4181 14.6802 19.6357 12.7913C18.8533 10.9024 17.704 9.18746 16.2544 7.74568ZM5.625 17.4376C5.43958 17.4376 5.25832 17.4925 5.10415 17.5956C4.94998 17.6986 4.82982 17.845 4.75886 18.0163C4.68791 18.1876 4.66934 18.3761 4.70551 18.558C4.74169 18.7398 4.83098 18.9069 4.96209 19.038C5.0932 19.1691 5.26025 19.2584 5.4421 19.2945C5.62396 19.3307 5.81246 19.3122 5.98377 19.2412C6.15507 19.1702 6.30149 19.0501 6.4045 18.8959C6.50752 18.7417 6.5625 18.5605 6.5625 18.3751C6.5625 18.1264 6.46373 17.888 6.28791 17.7121C6.1121 17.5363 5.87364 17.4376 5.625 17.4376Z" fill="white"/>
</svg>
