<svg width="32" height="32" viewBox="0 0 32 32" fill="none" xmlns="http://www.w3.org/2000/svg">
<path d="M22.5954 23.1377C22.5984 23.143 22.6022 23.1495 22.6073 23.158L22.6077 23.1582H22.3806C22.229 23.1582 22.0774 23.1581 21.9258 23.1581C21.3802 23.1579 20.8346 23.1578 20.2889 23.1595C20.2285 23.1596 20.1897 23.143 20.1529 23.0936C19.7212 22.5154 19.2888 21.9378 18.8563 21.3603C18.5454 20.9451 18.2346 20.5299 17.924 20.1145C17.5239 19.5794 17.1243 19.044 16.7247 18.5086C16.3973 18.0698 16.0698 17.6311 15.7421 17.1926C15.0451 16.2601 14.3475 15.3281 13.6499 14.3961C13.3803 14.0361 13.1106 13.6762 12.8409 13.3164C12.4665 12.8168 12.092 12.3172 11.718 11.8172C11.1182 11.0155 10.519 10.2132 9.91978 9.41095C9.79991 9.25046 9.68005 9.08998 9.56018 8.9295C9.55626 8.92427 9.55308 8.91856 9.54841 8.91015C9.54548 8.90487 9.54195 8.89853 9.53729 8.89058C9.54833 8.88979 9.55851 8.88887 9.56811 8.888C9.58637 8.88634 9.60259 8.88486 9.61888 8.88486C9.80613 8.88482 9.9934 8.88482 10.1807 8.88482C10.7423 8.88482 11.304 8.88482 11.8656 8.88372C11.917 8.88355 11.9499 8.89876 11.9812 8.94078C12.7241 9.9372 13.4679 10.9328 14.2125 11.9278C14.6157 12.4666 15.0193 13.0051 15.4228 13.5437C15.8593 14.1262 16.2957 14.7088 16.7318 15.2916C17.071 15.7449 17.4097 16.1985 17.7483 16.6521C18.0295 17.0287 18.3107 17.4054 18.5922 17.7818C18.9838 18.3055 19.3756 18.8291 19.7675 19.3526C20.1055 19.8043 20.4435 20.256 20.7814 20.7078C21.2496 21.3338 21.7176 21.9601 22.1856 22.5863C22.3183 22.7639 22.4509 22.9414 22.5836 23.1189C22.5873 23.1238 22.5904 23.1292 22.5954 23.1377Z" fill="black"/>
<path fill-rule="evenodd" clip-rule="evenodd" d="M6.13359 2.93359C4.36628 2.93359 2.93359 4.36628 2.93359 6.13359V25.8669C2.93359 27.6342 4.36628 29.0669 6.13359 29.0669H25.8669C27.6342 29.0669 29.0669 27.6342 29.0669 25.8669V6.13359C29.0669 4.36628 27.6342 2.93359 25.8669 2.93359H6.13359ZM17.6841 14.6549L24.073 7.75306L24.0598 7.73491C23.9441 7.73491 23.8285 7.73497 23.7128 7.73504C23.3493 7.73525 22.9858 7.73546 22.6222 7.7336C22.5596 7.73327 22.5163 7.75142 22.4739 7.79737C22.0724 8.23295 21.67 8.66773 21.2676 9.10249C21.0659 9.32037 20.8643 9.53824 20.6627 9.7562C20.4058 10.0341 20.1491 10.3121 19.8924 10.5901C19.579 10.9295 19.2656 11.2688 18.9519 11.6079C18.6017 11.9865 18.251 12.3646 17.9003 12.7427C17.8127 12.8371 17.7252 12.9315 17.6377 13.0259C17.4598 13.2176 17.2819 13.4092 17.1018 13.6033L16.9915 13.7221C16.9849 13.7142 16.9786 13.7067 16.9726 13.6996C16.9596 13.6843 16.9478 13.6704 16.9369 13.6559C16.6979 13.3361 16.4589 13.0164 16.22 12.6966C15.7949 12.1277 15.3699 11.5589 14.9445 10.9904C14.7102 10.6773 14.4758 10.3643 14.2414 10.0513C13.6818 9.3041 13.1222 8.55698 12.5642 7.80865C12.5233 7.75387 12.484 7.7336 12.4173 7.7336C10.9678 7.735 9.51829 7.73496 8.06877 7.73492C7.82712 7.73491 7.58547 7.73491 7.34382 7.73491H7.23999C7.25656 7.75781 7.2718 7.77907 7.28623 7.7992C7.31353 7.83728 7.33792 7.87131 7.36295 7.90479C7.60647 8.23002 7.85009 8.55518 8.09372 8.88035C8.5136 9.44074 8.93348 10.0012 9.35285 10.562C9.71439 11.0453 10.0754 11.529 10.4365 12.0126C10.7604 12.4466 11.0843 12.8806 11.4086 13.3143C12.2847 14.4862 13.1615 15.6577 14.039 16.8284C14.0648 16.8629 14.0696 16.8821 14.0375 16.9166C13.6612 17.3219 13.2857 17.728 12.9102 18.1341C12.682 18.3809 12.4537 18.6276 12.2254 18.8742C11.7917 19.3424 11.3578 19.8104 10.9239 20.2783C10.535 20.6976 10.1462 21.117 9.75753 21.5365C8.98496 22.3704 8.21287 23.2046 7.44078 24.0388C7.39087 24.0928 7.34131 24.1473 7.28789 24.206C7.25994 24.2368 7.23093 24.2686 7.20026 24.3022H7.30098C7.41068 24.3022 7.52038 24.3022 7.63008 24.3021C7.97788 24.3019 8.32567 24.3018 8.67347 24.3034C8.72988 24.3035 8.76929 24.2877 8.80771 24.2458C9.08632 23.9427 9.366 23.6406 9.6457 23.3384C9.74289 23.2335 9.84008 23.1285 9.93723 23.0234C10.2273 22.7099 10.5172 22.3963 10.8072 22.0826C11.2667 21.5856 11.7262 21.0886 12.186 20.5919C12.6649 20.0743 13.1441 19.557 13.6233 19.0396C13.9664 18.6691 14.3096 18.2986 14.6526 17.928C14.6779 17.9009 14.7023 17.8731 14.7276 17.8443C14.7402 17.83 14.7529 17.8155 14.7661 17.8006C14.935 18.0267 15.1032 18.2519 15.2711 18.4766C15.8573 19.2614 16.4381 20.0389 17.0193 20.8161C17.2403 21.1117 17.4614 21.4073 17.6825 21.7029C18.3182 22.5527 18.9539 23.4025 19.5885 24.253C19.622 24.2978 19.6594 24.3027 19.7073 24.3027C20.9229 24.3023 22.1384 24.3022 23.354 24.3022C23.8378 24.3021 24.3216 24.3021 24.8054 24.3021C24.8225 24.3021 24.8396 24.3009 24.8609 24.2994C24.8715 24.2987 24.8832 24.2979 24.8965 24.2972C22.5817 21.2027 20.2747 18.1184 17.9651 15.0306L17.6841 14.6549Z" fill="black"/>
</svg>
