<svg width="237" height="38" viewBox="0 0 237 38" fill="none" xmlns="http://www.w3.org/2000/svg">
<path d="M18.2746 2.68891L0.173164 34.0376C-0.318355 34.8884 0.295196 35.9494 1.27484 35.9494H5.42394L18.2678 13.1938C18.7559 12.3294 20 12.3294 20.4847 13.1938L33.3286 35.9494H37.4743C38.454 35.9494 39.0675 34.8884 38.576 34.0376L20.478 2.68891C19.9864 1.83807 18.7627 1.83807 18.2712 2.68891H18.2746Z" fill="#0000C9"/>
<path d="M18.182 23.3218L10.8906 35.9487H27.8531L20.5617 23.3218C20.0329 22.4032 18.7075 22.4032 18.1787 23.3218H18.182Z" fill="#0000C9"/>
<path d="M76.4869 34L74.3304 27.9478H63.8608L61.7739 34H57.1826L66.3304 9.09565H71.9652L81.0782 34H76.4869ZM65.113 24.3652H73.0782L69.8434 15.2522C69.6347 14.6261 69.2521 13.1652 69.0782 11.9478C68.8347 13.2696 68.4869 14.6261 68.2782 15.2522L65.113 24.3652ZM98.5078 23.287L105.082 34H99.9339L97.5687 29.7913L94.1252 24.087H88.5948L88.6991 34H84.2817C84.3165 29.8609 84.3513 25.687 84.3513 20.9565C84.3513 17.4087 84.3165 13.2348 84.2817 9.09565H95.8296C100.873 9.09565 103.83 11.8087 103.83 16.2957C103.83 19.9478 101.882 22.4174 98.5078 23.287ZM95.0644 12.6783H88.6644C88.6296 15.4957 88.5948 18.2435 88.5948 20.6783H94.6122C97.673 20.6783 99.3774 19.2174 99.3774 16.6435C99.3774 14.1043 97.7774 12.6435 95.0644 12.6783ZM126.485 12.6087H118.485C118.45 16.087 118.415 19.6 118.415 22.5565C118.415 26.6957 118.45 30.3826 118.485 34H114.067C114.137 30.3826 114.172 26.6957 114.172 22.5565C114.172 19.6 114.137 16.087 114.067 12.6087H106.067L105.789 9.09565H126.798L126.485 12.6087ZM159.558 9.09565C159.523 13.2348 159.454 17.4087 159.454 20.9565C159.454 25.687 159.523 29.8609 159.558 34H155.141C155.21 30.487 155.245 26.9391 155.245 23.0783H143.384L143.489 34H139.071C139.106 29.8609 139.141 25.687 139.141 20.9565C139.141 17.4087 139.106 13.2348 139.071 9.09565H143.489L143.384 19.287H155.245C155.245 16.1217 155.21 12.6087 155.141 9.09565H159.558ZM172.911 34.4522C167.171 34.4522 164.041 30.3826 164.041 24.9217C164.041 19.4609 167.171 15.3565 172.911 15.3565C178.684 15.3565 181.78 19.4609 181.78 24.9217C181.78 30.3826 178.684 34.4522 172.911 34.4522ZM172.911 31.1826C175.971 31.1826 177.711 28.6087 177.711 24.9217C177.711 21.2 175.971 18.6261 172.911 18.6261C169.884 18.6261 168.145 21.2 168.145 24.9217C168.145 28.6087 169.884 31.1826 172.911 31.1826ZM213.382 34H209.243C209.278 30.2783 209.278 26.7652 209.278 22.9739C209.278 20.1217 208.304 18.6261 205.765 18.6261C202.948 18.6261 201.626 20.7478 201.626 23.5304C201.626 26.9391 201.626 30.487 201.661 34H197.521C197.556 30.2783 197.556 26.7652 197.556 22.9739C197.556 20.1217 196.547 18.6261 194.078 18.6261C191.156 18.6261 189.904 21.5478 189.904 25.3739V34H185.8C185.834 30.9391 185.869 27.913 185.869 24.8522C185.869 21.8609 185.834 18.8 185.8 15.7739H190.008L189.904 19.2174V19.5652C190.947 16.8522 192.965 15.3565 195.574 15.3565C199.087 15.3565 200.721 17.0609 201.313 19.5304C202.252 16.8522 204.408 15.3565 207.261 15.3565C211.991 15.3565 213.348 18.4522 213.348 22.2783C213.348 26.0696 213.313 30.0348 213.382 34ZM226.24 15.3565C231.701 15.3565 234.762 19.0435 234.484 24.713L234.449 25.4783H221.301C221.51 29.0261 223.353 31.0435 226.24 31.0435C228.536 31.0435 230.066 30 230.762 28.1913L234.449 28.9217C233.266 32.3304 230.345 34.4522 226.275 34.4522C220.779 34.4522 217.336 30.8696 217.336 24.9913C217.336 19.0783 220.675 15.3565 226.24 15.3565ZM221.51 22.6609H230.553C230.24 20.0174 228.71 18.4174 226.205 18.4174C223.666 18.4174 222.031 19.9826 221.51 22.6609Z" fill="#0000C9"/>
</svg>
