<svg width="31" height="30" viewBox="0 0 31 30" fill="none" xmlns="http://www.w3.org/2000/svg">
<path d="M15.5 30C7.21572 30 0.5 23.2842 0.5 15C0.5 6.71572 7.21572 0 15.5 0C23.7842 0 30.5 6.71572 30.5 15C30.5 23.2842 23.7842 30 15.5 30ZM9.5 16.5C9.5 19.8137 12.1863 22.5 15.5 22.5C18.8137 22.5 21.5 19.8137 21.5 16.5H9.5ZM9.5 13.5C10.7426 13.5 11.75 12.4926 11.75 11.25C11.75 10.0074 10.7426 9 9.5 9C8.25736 9 7.25 10.0074 7.25 11.25C7.25 12.4926 8.25736 13.5 9.5 13.5ZM21.5 13.5C22.7426 13.5 23.75 12.4926 23.75 11.25C23.75 10.0074 22.7426 9 21.5 9C20.2574 9 19.25 10.0074 19.25 11.25C19.25 12.4926 20.2574 13.5 21.5 13.5Z" fill="#FFD100"/>
</svg>
