<svg width="37" height="36" viewBox="0 0 37 36" fill="none" xmlns="http://www.w3.org/2000/svg">
<path d="M18.5 33C10.2157 33 3.5 26.2842 3.5 18C3.5 9.71572 10.2157 3 18.5 3C26.7842 3 33.5 9.71572 33.5 18C33.5 26.2842 26.7842 33 18.5 33ZM11 25.5H14C14 23.0147 16.0147 21 18.5 21C20.9853 21 23 23.0147 23 25.5H26C26 21.3579 22.6421 18 18.5 18C14.3579 18 11 21.3579 11 25.5ZM12.5 16.5C13.7426 16.5 14.75 15.4926 14.75 14.25C14.75 13.0074 13.7426 12 12.5 12C11.2574 12 10.25 13.0074 10.25 14.25C10.25 15.4926 11.2574 16.5 12.5 16.5ZM24.5 16.5C25.7426 16.5 26.75 15.4926 26.75 14.25C26.75 13.0074 25.7426 12 24.5 12C23.2574 12 22.25 13.0074 22.25 14.25C22.25 15.4926 23.2574 16.5 24.5 16.5Z" fill="#747474"/>
</svg>
