<svg width="24" height="24" viewBox="0 0 24 24" fill="none" xmlns="http://www.w3.org/2000/svg">
<path d="M10.5095 2.62348C11.1666 1.46687 12.8334 1.46687 13.4905 2.62348L14.2155 3.8996C14.6032 4.58191 15.4046 4.91388 16.1612 4.70553L17.5762 4.31584C18.8587 3.96265 20.0373 5.14126 19.6842 6.42375L19.2945 7.83878C19.0861 8.59535 19.4181 9.3968 20.1004 9.78445L21.3765 10.5095C22.5331 11.1666 22.5331 12.8334 21.3765 13.4905L20.1004 14.2155C19.4181 14.6032 19.0861 15.4046 19.2945 16.1612L19.6842 17.5762C20.0373 18.8587 18.8587 20.0373 17.5762 19.6842L16.1612 19.2945C15.4046 19.0861 14.6032 19.4181 14.2155 20.1004L13.4905 21.3765C12.8334 22.5331 11.1666 22.5331 10.5095 21.3765L9.78446 20.1004C9.3968 19.4181 8.59535 19.0861 7.83878 19.2945L6.42375 19.6842C5.14126 20.0373 3.96265 18.8587 4.31584 17.5762L4.70553 16.1612C4.91388 15.4046 4.58191 14.6032 3.8996 14.2155L2.62348 13.4905C1.46687 12.8334 1.46687 11.1666 2.62348 10.5095L3.8996 9.78446C4.58191 9.3968 4.91388 8.59535 4.70553 7.83878L4.31584 6.42375C3.96265 5.14126 5.14126 3.96265 6.42375 4.31584L7.83878 4.70553C8.59535 4.91388 9.3968 4.58191 9.78446 3.8996L10.5095 2.62348Z" fill="white" fill-opacity="0.19"/>
<path fill-rule="evenodd" clip-rule="evenodd" d="M12.5723 13.9994L16.572 9.99972L15.572 8.99972L11.5723 12.9994L9.57255 10.9997L8.57255 11.9997L10.5723 13.9994L10.572 13.9997L11.572 14.9997L11.5723 14.9994L11.5726 14.9997L12.5726 13.9997L12.5723 13.9994Z" fill="#02021E"/>
</svg>
