
<svg width="24" height="24" viewBox="0 0 24 24" fill="none" xmlns="http://www.w3.org/2000/svg">
<g clip-path="url(#clip0_8777_55696)">
<circle cx="12" cy="12" r="9" fill="white"/>
<path d="M12.0049 22.0039C6.48204 22.0039 2.00488 17.5268 2.00488 12.0039C2.00488 6.48106 6.48204 2.00391 12.0049 2.00391C17.5277 2.00391 22.0049 6.48106 22.0049 12.0039C22.0049 17.5268 17.5277 22.0039 12.0049 22.0039ZM8.50488 14.0039V16.0039H11.0049V18.0039H13.0049V16.0039H14.0049C15.3856 16.0039 16.5049 14.8847 16.5049 13.5039C16.5049 12.1232 15.3856 11.0039 14.0049 11.0039H10.0049C9.72874 11.0039 9.50488 10.7801 9.50488 10.5039C9.50488 10.2278 9.72874 10.0039 10.0049 10.0039H15.5049V8.00391H13.0049V6.00391H11.0049V8.00391H10.0049C8.62417 8.00391 7.50488 9.12319 7.50488 10.5039C7.50488 11.8847 8.62417 13.0039 10.0049 13.0039H14.0049C14.281 13.0039 14.5049 13.2278 14.5049 13.5039C14.5049 13.7801 14.281 14.0039 14.0049 14.0039H8.50488Z" fill="#ED4E00"/>
</g>
<defs>
<clipPath id="clip0_8777_55696">
<rect width="24" height="24" fill="white"/>
</clipPath>
</defs>
</svg>
