<svg width="20" height="20" viewBox="0 0 20 20" fill="none" xmlns="http://www.w3.org/2000/svg">
<path d="M9.14658 12.354L4.14658 7.35403C4.10013 7.30757 4.06328 7.25242 4.03814 7.19173C4.01299 7.13103 4.00005 7.06598 4.00005 7.00028C4.00005 6.93458 4.01299 6.86953 4.03814 6.80883C4.06328 6.74813 4.10013 6.69298 4.14658 6.64653C4.19304 6.60007 4.24819 6.56322 4.30888 6.53808C4.36958 6.51294 4.43463 6.5 4.50033 6.5C4.56603 6.5 4.63108 6.51294 4.69178 6.53808C4.75248 6.56322 4.80763 6.60007 4.85408 6.64653L9.50033 11.2934L14.1466 6.64653C14.2404 6.55271 14.3677 6.5 14.5003 6.5C14.633 6.5 14.7603 6.55271 14.8541 6.64653C14.9479 6.74035 15.0006 6.8676 15.0006 7.00028C15.0006 7.13296 14.9479 7.26021 14.8541 7.35403L9.85408 12.354C9.80765 12.4005 9.7525 12.4374 9.6918 12.4626C9.6311 12.4877 9.56604 12.5007 9.50033 12.5007C9.43462 12.5007 9.36956 12.4877 9.30886 12.4626C9.24816 12.4374 9.19302 12.4005 9.14658 12.354Z" fill="black"/>
</svg>
