<svg width="21" height="21" viewBox="0 0 21 21" fill="none" xmlns="http://www.w3.org/2000/svg">
<g opacity="0.5">
<path d="M10.4993 18.8346C5.89697 18.8346 2.16602 15.1036 2.16602 10.5013C2.16602 5.89893 5.89697 2.16797 10.4993 2.16797C15.1017 2.16797 18.8327 5.89893 18.8327 10.5013C18.8327 15.1036 15.1017 18.8346 10.4993 18.8346ZM10.4993 17.168C14.1813 17.168 17.166 14.1832 17.166 10.5013C17.166 6.8194 14.1813 3.83464 10.4993 3.83464C6.81745 3.83464 3.83268 6.8194 3.83268 10.5013C3.83268 14.1832 6.81745 17.168 10.4993 17.168ZM9.66602 13.0013H11.3327V14.668H9.66602V13.0013ZM9.66602 6.33464H11.3327V11.3346H9.66602V6.33464Z" fill="white"/>
</g>
</svg>
