<svg width="20" height="20" viewBox="0 0 20 20" fill="none" xmlns="http://www.w3.org/2000/svg">
<path d="M7.22222 1.11133C6.18403 1.11133 5.32292 1.82313 5.07639 2.78494C5.04861 2.78494 5.02778 2.77799 5 2.77799C3.77431 2.77799 2.77778 3.77452 2.77778 5.00022C2.77778 5.16688 2.79861 5.33008 2.83681 5.48633C1.82292 5.903 1.11111 6.89605 1.11111 8.05577C1.11111 8.49327 1.22222 8.89952 1.39931 9.26758C0.565972 9.74675 0 10.6356 0 11.6669C0 12.8231 0.708333 13.8162 1.71528 14.2329C1.68403 14.3926 1.66667 14.5558 1.66667 14.7224C1.66667 16.1044 2.78472 17.2224 4.16667 17.2224C4.30903 17.2224 4.44792 17.2051 4.58333 17.1808C4.91667 18.1704 5.84028 18.8891 6.94444 18.8891C8.32639 18.8891 9.44444 17.7711 9.44444 16.3891V3.33355C9.44444 2.10786 8.44792 1.11133 7.22222 1.11133ZM20 11.6669C20 10.6356 19.434 9.74675 18.6007 9.26758C18.7813 8.89952 18.8889 8.49327 18.8889 8.05577C18.8889 6.89605 18.1771 5.903 17.1632 5.48633C17.1979 5.33008 17.2222 5.16688 17.2222 5.00022C17.2222 3.77452 16.2257 2.77799 15 2.77799C14.9722 2.77799 14.9479 2.78494 14.9236 2.78494C14.6771 1.82313 13.816 1.11133 12.7778 1.11133C11.5521 1.11133 10.5556 2.10438 10.5556 3.33355V16.3891C10.5556 17.7711 11.6736 18.8891 13.0556 18.8891C14.1597 18.8891 15.0833 18.1704 15.4167 17.1808C15.5521 17.2051 15.691 17.2224 15.8333 17.2224C17.2153 17.2224 18.3333 16.1044 18.3333 14.7224C18.3333 14.5558 18.316 14.3926 18.2847 14.2329C19.2917 13.8162 20 12.8231 20 11.6669Z" fill="#4B5563"/>
</svg>
