<svg width="20" height="20" viewBox="0 0 20 20" fill="none" xmlns="http://www.w3.org/2000/svg">
<g clip-path="url(#clip0_1186_1419)">
<path fill-rule="evenodd" clip-rule="evenodd" d="M9.97334 0.833008C4.91951 0.833008 0.833984 5.0344 0.833984 10.2321C0.833984 14.3869 3.45172 17.9038 7.08322 19.1486C7.53725 19.2422 7.70356 18.9463 7.70356 18.6975C7.70356 18.4796 7.68859 17.7327 7.68859 16.9545C5.14625 17.5148 4.61682 15.8341 4.61682 15.8341C4.20825 14.7448 3.60288 14.4648 3.60288 14.4648C2.77077 13.889 3.66349 13.889 3.66349 13.889C4.58652 13.9513 5.07086 14.8538 5.07086 14.8538C5.88781 16.2853 7.20426 15.8809 7.73387 15.6318C7.80944 15.0249 8.05171 14.6048 8.30893 14.3714C6.28123 14.1535 4.14783 13.3444 4.14783 9.73403C4.14783 8.70698 4.51075 7.86671 5.08582 7.2132C4.99509 6.97983 4.67725 6.01485 5.17674 4.7233C5.17674 4.7233 5.94842 4.47428 7.68841 5.6881C8.43335 5.48235 9.20161 5.37769 9.97334 5.37681C10.745 5.37681 11.5317 5.48586 12.2581 5.6881C13.9983 4.47428 14.7699 4.7233 14.7699 4.7233C15.2694 6.01485 14.9514 6.97983 14.8607 7.2132C15.4509 7.86671 15.7988 8.70698 15.7988 9.73403C15.7988 13.3444 13.6654 14.1379 11.6226 14.3714C11.9556 14.667 12.2429 15.2272 12.2429 16.1142C12.2429 17.3746 12.228 18.3862 12.228 18.6973C12.228 18.9463 12.3945 19.2422 12.8483 19.1488C16.4798 17.9036 19.0975 14.3869 19.0975 10.2321C19.1125 5.0344 15.012 0.833008 9.97334 0.833008Z" stroke="#000014" stroke-width="0.625"/>
</g>
<defs>
<clipPath id="clip0_1186_1419">
<rect width="20" height="20" fill="white"/>
</clipPath>
</defs>
</svg>
