<svg width="20" height="20" viewBox="0 0 20 20" fill="none" xmlns="http://www.w3.org/2000/svg">
<g clip-path="url(#clip0_1222_1902)">
<path d="M5.00586 6.08073C5.00186 5.99864 4.99982 5.91605 4.99982 5.83301C4.99982 3.07158 7.2384 0.833008 9.99984 0.833008C11.1245 0.833008 12.1646 1.20532 13.0003 1.83307L11.9993 3.16568C11.4423 2.74728 10.7512 2.49968 9.99984 2.49968C9.76976 2.49968 9.54501 2.52299 9.32801 2.5674C7.80911 2.87823 6.66651 4.22218 6.66651 5.83301C6.66651 7.52724 7.9305 8.92626 9.56692 9.13851C10.4198 7.96507 11.7123 7.25703 13.0798 7.11056C13.6495 7.04953 14.2325 7.08619 14.8028 7.22674C15.2503 7.33702 15.6898 7.51138 16.1082 7.75293C18.4997 9.13368 19.319 12.1916 17.9383 14.583C16.5576 16.9745 13.4997 17.7939 11.1082 16.4132C10.6898 16.1717 10.3192 15.8783 9.99984 15.5458C9.68059 15.8783 9.30984 16.1717 8.89142 16.4133C6.5 17.7939 3.44205 16.9746 2.06133 14.5831C0.680622 12.1917 1.5 9.13368 3.89146 7.75298C4.30978 7.51148 4.74916 7.33713 5.1967 7.22685C5.09382 6.87173 5.02926 6.50033 5.0078 6.11743L5.00586 6.08073ZM5.958 8.77701C5.53616 8.83209 5.11766 8.96951 4.7248 9.19634C3.13049 10.1168 2.58424 12.1555 3.50471 13.7498C4.42519 15.3441 6.46382 15.8903 8.05813 14.9698C8.58492 14.6658 8.99559 14.2413 9.27792 13.7517C9.78559 12.8711 9.87751 11.7823 9.47059 10.8054C9.15042 10.7717 8.83917 10.7078 8.53992 10.6165C8.50217 10.605 8.46459 10.593 8.42717 10.5807C7.42682 10.2494 6.56648 9.61093 5.958 8.77701ZM10.9618 14.1116C11.2204 14.4493 11.5487 14.743 11.9415 14.9698C13.5358 15.8903 15.5744 15.344 16.4949 13.7497C16.9112 13.0288 17.0275 12.2171 16.8826 11.4589C16.7072 10.5403 16.1483 9.70043 15.2748 9.19609C14.748 8.89201 14.1752 8.74851 13.61 8.74884C12.5936 8.74951 11.6048 9.21434 10.9622 10.0552C11.0549 10.2634 11.1322 10.4753 11.1945 10.6894C11.231 10.8151 11.2624 10.9415 11.2888 11.0684C11.3 11.1228 11.3103 11.1773 11.3198 11.2318C11.4891 12.2136 11.3579 13.2173 10.9618 14.1116ZM15.481 5.83301C15.7215 6.11136 15.9215 6.42777 16.072 6.7731L16.2774 7.2445C16.4278 7.58961 16.9052 7.58961 17.0555 7.2445L17.261 6.7731C17.6273 5.93257 18.2869 5.26335 19.1101 4.89724L19.7431 4.61569C20.0854 4.46345 20.0854 3.96535 19.7431 3.81311L19.1455 3.54729C18.3012 3.17177 17.6297 2.47778 17.2697 1.6087L17.0587 1.09928C16.9117 0.744249 16.4213 0.744249 16.2743 1.09928L16.0633 1.6087C15.9969 1.769 15.9199 1.92334 15.8332 2.07083C15.4498 2.72295 14.8761 3.24103 14.1875 3.54729L13.5898 3.81311C13.2476 3.96535 13.2476 4.46345 13.5898 4.61569L14.2229 4.89724C14.7078 5.11293 15.1361 5.43384 15.481 5.83301Z" fill="#000014"/>
</g>
<defs>
<clipPath id="clip0_1222_1902">
<rect width="20" height="20" fill="white"/>
</clipPath>
</defs>
</svg>
