<svg width="20" height="20" viewBox="0 0 20 20" fill="none" xmlns="http://www.w3.org/2000/svg">
<path d="M14.7612 8.44008L14.5557 8.9115C14.4053 9.25658 13.928 9.25658 13.7776 8.9115L13.5722 8.44008C13.2059 7.59956 12.5463 6.93034 11.7231 6.56423L11.09 6.28268C10.7477 6.13044 10.7477 5.63234 11.09 5.4801L11.6877 5.21428C12.532 4.83876 13.2035 4.14478 13.5634 3.27569L13.7744 2.76628C13.9215 2.41124 14.4118 2.41124 14.5588 2.76628L14.7698 3.27569C15.1298 4.14478 15.8013 4.83876 16.6457 5.21428L17.2432 5.4801C17.5856 5.63234 17.5856 6.13044 17.2432 6.28268L16.6103 6.56423C15.7871 6.93034 15.1274 7.59956 14.7612 8.44008ZM2.35702 10.0001L5.89256 13.5357L4.71404 14.7142L0 10.0001L4.71404 5.28605L5.89256 6.46457L2.35702 10.0001ZM15.2857 14.7143L19.9998 10.0003L17.6428 7.64323L16.4642 8.82175L17.6428 10.0003L14.1072 13.5358L15.2857 14.7143Z" fill="#000014"/>
</svg>
