<svg width="20" height="20" viewBox="0 0 20 20" fill="none" xmlns="http://www.w3.org/2000/svg">
<g clip-path="url(#clip0_1166_3200)">
<path d="M17.056 7.2445L17.2615 6.7731C17.6277 5.93257 18.2874 5.26335 19.1106 4.89724L19.7436 4.61569C20.0859 4.46345 20.0859 3.96535 19.7436 3.81311L19.146 3.54729C18.3017 3.17177 17.6302 2.47778 17.2702 1.6087L17.0592 1.09928C16.9122 0.744249 16.4218 0.744249 16.2747 1.09928L16.0637 1.6087C15.7038 2.47778 15.0323 3.17177 14.188 3.54729L13.5903 3.81311C13.2481 3.96535 13.2481 4.46345 13.5903 4.61569L14.2234 4.89724C15.0466 5.26335 15.7062 5.93257 16.0725 6.7731L16.2779 7.2445C16.4283 7.58961 16.9057 7.58961 17.056 7.2445ZM4.8336 13.333H6.62865L7.12865 12.083H9.53858L10.0386 13.333H11.8336L9.16691 6.66634H7.50027L4.8336 13.333ZM8.3336 9.07067L8.87191 10.4163H7.79532L8.3336 9.07067ZM12.5003 13.333V6.66634H14.167V13.333H12.5003ZM2.50033 2.49968C2.04009 2.49968 1.66699 2.87278 1.66699 3.33301V16.6663C1.66699 17.1266 2.04009 17.4997 2.50033 17.4997H17.5003C17.9606 17.4997 18.3337 17.1266 18.3337 16.6663V9.16634H16.667V15.833H3.33366V4.16634H11.667V2.49968H2.50033Z" fill="#000014"/>
</g>
<defs>
<clipPath id="clip0_1166_3200">
<rect width="20" height="20" fill="white"/>
</clipPath>
</defs>
</svg>
