<svg width="15" height="16" viewBox="0 0 15 16" fill="none" xmlns="http://www.w3.org/2000/svg">
<path d="M10.7881 8.31643L6.31401 12.7905C6.27244 12.8321 6.22309 12.8651 6.16878 12.8876C6.11446 12.9101 6.05625 12.9216 5.99746 12.9216C5.93868 12.9216 5.88046 12.9101 5.82615 12.8876C5.77184 12.8651 5.72249 12.8321 5.68092 12.7905C5.63935 12.749 5.60638 12.6996 5.58388 12.6453C5.56138 12.591 5.5498 12.5328 5.5498 12.474C5.5498 12.4152 5.56138 12.357 5.58388 12.3027C5.60638 12.2484 5.63935 12.199 5.68092 12.1574L9.83904 7.99989L5.68092 3.84233C5.59697 3.75837 5.5498 3.64451 5.5498 3.52578C5.5498 3.40706 5.59697 3.29319 5.68092 3.20924C5.76487 3.12529 5.87874 3.07813 5.99746 3.07812C6.11619 3.07812 6.23005 3.12529 6.31401 3.20924L10.7881 7.68334C10.8297 7.7249 10.8627 7.77424 10.8852 7.82856C10.9077 7.88287 10.9193 7.94109 10.9193 7.99989C10.9193 8.05868 10.9077 8.1169 10.8852 8.17122C10.8627 8.22553 10.8297 8.27488 10.7881 8.31643Z" fill="#000014"/>
</svg>
