<svg width="698" height="148" viewBox="0 0 698 148" fill="none" xmlns="http://www.w3.org/2000/svg">
<path d="M61.064 4.06L52.36 52H40.392L32.164 5.76H30.464L22.44 52H10.336L1.496 4.06H7.616L15.504 45.2L15.096 50.3H16.864L25.024 4.06H37.672L45.764 50.3H47.532L47.26 45.2L54.944 4.06H61.064ZM63.0328 34.66C63.0328 23.712 69.5608 17.524 79.2168 17.524C89.2128 17.524 95.7408 23.576 95.7408 34.048V36.224H68.8808C69.0848 42.82 72.5528 47.852 79.5568 47.852C85.3368 47.852 88.7368 44.86 89.8928 40.168H95.8768C94.5168 46.424 90.0288 52.68 79.6248 52.68C68.6088 52.68 63.0328 44.656 63.0328 34.66ZM68.9488 31.94H89.8248C89.4168 25.82 85.2688 22.284 79.2168 22.284C73.6408 22.284 69.4248 25.82 68.9488 31.94ZM100.34 52V46.832H109.792V7.188H102.72V2.02H112.308C114.552 2.02 115.844 3.176 115.844 5.42V46.832H125.296V52H100.34ZM128.908 35.068C128.908 25.208 135.3 17.524 146.248 17.524C153.048 17.524 161.412 21.332 162.228 31.124H156.176C155.224 24.936 151.144 22.692 146.248 22.692C138.632 22.692 134.892 28.268 134.892 35.068C134.892 41.936 138.632 47.512 146.248 47.512C151.144 47.512 155.224 45.268 156.176 39.08H162.228C161.412 48.872 153.048 52.68 146.248 52.68C135.3 52.68 128.908 44.996 128.908 35.068ZM169.017 35.068C169.017 25.072 176.157 17.524 186.969 17.524C197.713 17.524 204.853 25.072 204.853 35.068C204.853 45.132 197.713 52.68 186.969 52.68C176.157 52.68 169.017 45.132 169.017 35.068ZM175.001 35.068C175.001 41.936 179.217 47.512 186.969 47.512C194.653 47.512 198.869 41.936 198.869 35.068C198.869 28.268 194.653 22.692 186.969 22.692C179.217 22.692 175.001 28.268 175.001 35.068ZM213.01 52V18.204H219.062V23.712L218.042 27.792H219.742C221.102 21.672 224.57 17.524 231.778 17.524C237.966 17.524 241.094 21.74 241.91 27.792H242.998C244.358 21.672 247.826 17.524 255.034 17.524C262.242 17.524 265.574 23.304 265.574 30.988V52H259.522V32.28C259.522 25.752 258.094 22.692 252.722 22.692C246.126 22.692 242.318 28.54 242.318 37.38V52H236.266V32.28C236.266 25.752 234.838 22.692 229.466 22.692C222.87 22.692 219.062 28.54 219.062 37.38V52H213.01ZM273.076 34.66C273.076 23.712 279.604 17.524 289.26 17.524C299.256 17.524 305.784 23.576 305.784 34.048V36.224H278.924C279.128 42.82 282.596 47.852 289.6 47.852C295.38 47.852 298.78 44.86 299.936 40.168H305.92C304.56 46.424 300.072 52.68 289.668 52.68C278.652 52.68 273.076 44.656 273.076 34.66ZM278.992 31.94H299.868C299.46 25.82 295.312 22.284 289.26 22.284C283.684 22.284 279.468 25.82 278.992 31.94ZM358.496 46.832V52H345.236C342.04 52 340.476 50.504 340.476 47.24V23.372H332.996V18.204H340.476V9.636L346.528 7.8V18.204H357.136V23.372H346.528V46.9L358.496 46.832ZM362.791 35.068C362.791 25.072 369.931 17.524 380.743 17.524C391.487 17.524 398.627 25.072 398.627 35.068C398.627 45.132 391.487 52.68 380.743 52.68C369.931 52.68 362.791 45.132 362.791 35.068ZM368.775 35.068C368.775 41.936 372.991 47.512 380.743 47.512C388.427 47.512 392.643 41.936 392.643 35.068C392.643 28.268 388.427 22.692 380.743 22.692C372.991 22.692 368.775 28.268 368.775 35.068ZM426.106 52L441.33 41.868Z" fill="black"/>
<path d="M1.836 130L17.068 82.06H30.328L45.628 130H39.168L33.388 111.64H14.008L8.228 130H1.836ZM15.708 106.336H31.688L24.548 83.76H22.848L15.708 106.336ZM51.6285 82.06H79.2365V87.364H68.4925V124.696H79.2365V130H51.6285V124.696H62.3725V87.364H51.6285V82.06ZM107.488 130L122.72 82.06H135.98L151.28 130H144.82L139.04 111.64H119.66L113.88 130H107.488ZM121.36 106.336H137.34L130.2 83.76H128.5L121.36 106.336ZM171.718 130.68C161.858 130.68 155.67 123.064 155.67 113.068C155.67 103.072 161.858 95.524 171.718 95.524C179.47 95.524 183.89 99.672 185.386 104.908H187.086L186.066 100.896V96.204H192.05V139.044C192.05 141.764 190.554 143.192 187.358 143.192H161.518V138.024H185.998V130H186.066V125.308L187.086 121.228H185.386C183.89 126.464 179.47 130.68 171.718 130.68ZM161.722 113.068C161.722 121.772 166.754 125.512 173.622 125.512C180.49 125.512 186.066 121.772 186.066 113.068C186.066 104.364 180.49 100.692 173.622 100.692C166.754 100.692 161.722 104.364 161.722 113.068ZM200.295 112.66C200.295 101.712 206.823 95.524 216.479 95.524C226.475 95.524 233.003 101.576 233.003 112.048V114.224H206.143C206.347 120.82 209.815 125.852 216.819 125.852C222.599 125.852 225.999 122.86 227.155 118.168H233.139C231.779 124.424 227.291 130.68 216.887 130.68C205.871 130.68 200.295 122.656 200.295 112.66ZM206.211 109.94H227.087C226.679 103.82 222.531 100.284 216.479 100.284C210.903 100.284 206.687 103.82 206.211 109.94ZM241.233 130V96.204H247.285V101.848L246.265 105.928H247.965C249.325 99.808 253.609 95.524 260.953 95.524C268.637 95.524 273.669 100.012 273.669 109.532V130H267.685V110.348C267.685 103.344 264.965 100.692 259.253 100.692C252.181 100.692 247.285 106.064 247.285 115.176V130H241.233ZM304.043 124.832V130H290.783C287.587 130 286.023 128.504 286.023 125.24V101.372H278.543V96.204H286.023V87.636L292.075 85.8V96.204H302.683V101.372H292.075V124.9L304.043 124.832Z" fill="#0000C9"/>
<path d="M338.356 130C335.636 130 334.072 128.504 334.072 125.716V82.06H340.26V124.696H364.264V130H338.356ZM369.298 120.616C369.298 115.244 372.562 111.504 380.586 110.756L393.846 109.464C393.574 103.344 390.786 100.42 384.802 100.42C380.11 100.42 376.574 102.596 376.03 108.24H370.046C370.794 100.556 375.962 95.524 384.734 95.524C394.594 95.524 399.898 101.576 399.898 110.484V124.832H404.862V130H398.674C396.09 130 394.594 128.504 394.594 125.92V124.288L395.546 120.684H393.846C392.554 125.852 388.95 130.68 380.722 130.68C370.794 130.68 369.298 124.152 369.298 120.616ZM375.282 119.868C375.282 123.744 377.798 125.716 381.674 125.716C389.018 125.716 393.846 120.548 393.846 113.748L381.606 115.04C377.458 115.448 375.282 116.604 375.282 119.868ZM422.673 130.68C414.921 130.68 409.889 126.124 409.889 116.672V96.204H415.941V115.856C415.941 122.792 418.593 125.512 424.373 125.512C431.377 125.512 436.341 120.14 436.341 110.96V96.204H442.325V130H436.341V124.288L437.293 120.276H435.661C434.301 126.396 430.017 130.68 422.673 130.68ZM450.944 130V96.204H456.996V101.848L455.976 105.928H457.676C459.036 99.808 463.32 95.524 470.664 95.524C478.348 95.524 483.38 100.012 483.38 109.532V130H477.396V110.348C477.396 103.344 474.676 100.692 468.964 100.692C461.892 100.692 456.996 106.064 456.996 115.176V130H450.944ZM490.888 113.068C490.888 103.208 497.28 95.524 508.228 95.524C515.028 95.524 523.392 99.332 524.208 109.124H518.156C517.204 102.936 513.124 100.692 508.228 100.692C500.612 100.692 496.872 106.268 496.872 113.068C496.872 119.936 500.612 125.512 508.228 125.512C513.124 125.512 517.204 123.268 518.156 117.08H524.208C523.392 126.872 515.028 130.68 508.228 130.68C497.28 130.68 490.888 122.996 490.888 113.068ZM532.358 130V80.02H538.41V101.848L537.322 105.928H539.09C540.586 99.808 545.074 95.524 552.418 95.524C560.102 95.524 564.726 100.556 564.726 109.668V130H558.742V110.348C558.742 103.412 556.09 100.692 550.31 100.692C542.966 100.692 538.41 106.54 538.41 115.652V130H532.358ZM573.264 143.192V96.204H579.316V100.896L578.296 104.908H579.996C581.424 99.672 585.844 95.524 593.596 95.524C603.456 95.524 609.644 103.072 609.644 113.136C609.644 123.064 603.456 130.68 593.596 130.68C585.844 130.68 581.424 126.464 579.996 121.228H578.296L579.316 125.308V143.192H573.264ZM579.316 113.136C579.316 121.84 584.824 125.512 591.692 125.512C598.628 125.512 603.66 121.704 603.66 113.136C603.66 104.5 598.628 100.692 591.692 100.692C584.824 100.692 579.316 104.364 579.316 113.136ZM616.463 120.616C616.463 115.244 619.727 111.504 627.751 110.756L641.011 109.464C640.739 103.344 637.951 100.42 631.967 100.42C627.275 100.42 623.739 102.596 623.195 108.24H617.211C617.959 100.556 623.127 95.524 631.899 95.524C641.759 95.524 647.062 101.576 647.062 110.484V124.832H652.027V130H645.839C643.255 130 641.759 128.504 641.759 125.92V124.288L642.711 120.684H641.011C639.719 125.852 636.115 130.68 627.887 130.68C617.959 130.68 616.463 124.152 616.463 120.616ZM622.447 119.868C622.447 123.744 624.963 125.716 628.839 125.716C636.183 125.716 641.011 120.548 641.011 113.748L628.771 115.04C624.623 115.448 622.447 116.604 622.447 119.868ZM672.753 130.68C662.893 130.68 656.705 123.064 656.705 113.068C656.705 103.072 662.893 95.524 672.753 95.524C680.505 95.524 684.925 99.672 686.421 104.908H688.121L687.101 100.896V80.02H693.085V130H687.101V125.308L688.121 121.228H686.421C684.925 126.464 680.505 130.68 672.753 130.68ZM662.757 113.068C662.757 121.772 667.789 125.512 674.657 125.512C681.525 125.512 687.101 121.772 687.101 113.068C687.101 104.364 681.525 100.692 674.657 100.692C667.789 100.692 662.757 104.364 662.757 113.068Z" fill="black"/>
</svg>
